<svg width="221" height="40" viewBox="0 0 221 40" fill="none" xmlns="http://www.w3.org/2000/svg">
<path d="M23.743 6.26004H26.743V3.26004H23.743V6.26004ZM23.743 10.668V13.668H26.743V10.668H23.743ZM16.181 10.668V7.66804H13.181V10.668H16.181ZM16.181 34V37H19.181V34H16.181ZM10.785 34H7.78496V37H10.785V34ZM10.785 10.668H13.785V7.66804H10.785V10.668ZM3.22295 10.668H0.222656V13.668H3.22295V10.668ZM3.22295 6.26004V3.26004H0.222656V6.26004H3.22295ZM20.743 6.26004V10.668H26.743V6.26004H20.743ZM23.743 7.66804H16.181V13.668H23.743V7.66804ZM13.181 10.668V34H19.181V10.668H13.181ZM16.181 31H10.785V37H16.181V31ZM13.785 34V10.668H7.78496V34H13.785ZM10.785 7.66804H3.22295V13.668H10.785V7.66804ZM6.22295 10.668V6.26004H0.222656V10.668H6.22295ZM3.22295 9.26004H23.743V3.26004H3.22295V9.26004ZM27.09 34L24.243 33.0525L22.929 37H27.09V34ZM36.324 6.26004V3.26004H34.1609L33.477 5.31254L36.324 6.26004ZM42.024 6.26004L44.869 5.30904L44.184 3.26004H42.024V6.26004ZM51.296 34V37H55.462L54.141 33.049L51.296 34ZM45.5959 34L42.7059 34.8046L43.317 37H45.5959V34ZM43.7339 27.312L46.6239 26.5074L46.013 24.312H43.7339V27.312ZM34.5 27.312V24.312H32.233L31.614 26.4922L34.5 27.312ZM32.6 34V37H34.866L35.4859 34.8198L32.6 34ZM35.64 23.246L32.7489 22.4431L31.6929 26.246H35.64V23.246ZM42.5939 23.246V26.246H46.5529L45.4819 22.4348L42.5939 23.246ZM39.136 10.934L42.024 10.1228L41.409 7.93404H39.136V10.934ZM39.06 10.934V7.93404H36.78L36.169 10.1311L39.06 10.934ZM29.936 34.9475L39.17 7.20754L33.477 5.31254L24.243 33.0525L29.936 34.9475ZM36.324 9.26004H42.024V3.26004H36.324V9.26004ZM39.179 7.21104L48.451 34.951L54.141 33.049L44.869 5.30904L39.179 7.21104ZM51.296 31H45.5959V37H51.296V31ZM48.4859 33.1954L46.6239 26.5074L40.8439 28.1166L42.7059 34.8046L48.4859 33.1954ZM43.7339 24.312H34.5V30.312H43.7339V24.312ZM31.614 26.4922L29.714 33.1802L35.4859 34.8198L37.386 28.1318L31.614 26.4922ZM32.6 31H27.09V37H32.6V31ZM35.64 26.246H42.5939V20.246H35.64V26.246ZM45.4819 22.4348L42.024 10.1228L36.248 11.7452L39.7059 24.0572L45.4819 22.4348ZM39.136 7.93404H39.06V13.934H39.136V7.93404ZM36.169 10.1311L32.7489 22.4431L38.53 24.0489L41.95 11.7369L36.169 10.1311ZM60.1799 16.558L57.9989 14.499L57.998 14.5L60.1799 16.558ZM74.392 16.558L76.574 14.499L74.392 16.558ZM74.392 31.682L76.574 33.741L74.392 31.682ZM60.1799 31.72L57.983 33.7625L57.998 33.7786L58.013 33.7944L60.1799 31.72ZM63.904 19.142L61.463 17.3983L61.455 17.4096L63.904 19.142ZM63.904 29.136L61.436 30.8406L61.459 30.8744L61.483 30.9075L63.904 29.136ZM62.362 18.617C63.367 17.5521 64.8689 16.86 67.2859 16.86V10.86C63.624 10.86 60.3879 11.9666 57.9989 14.499L62.362 18.617ZM67.2859 16.86C69.7039 16.86 71.206 17.5521 72.211 18.617L76.574 14.499C74.185 11.9666 70.949 10.86 67.2859 10.86V16.86ZM72.211 18.617C73.235 19.7029 73.938 21.3975 73.938 24.12H79.938C79.938 20.3572 78.944 17.0105 76.574 14.499L72.211 18.617ZM73.938 24.12C73.938 26.8425 73.235 28.5371 72.211 29.623L76.574 33.741C78.944 31.2295 79.938 27.8828 79.938 24.12H73.938ZM72.211 29.623C71.206 30.6879 69.7039 31.38 67.2859 31.38V37.38C70.949 37.38 74.185 36.2734 76.574 33.741L72.211 29.623ZM67.2859 31.38C64.8569 31.38 63.35 30.6925 62.348 29.6456L58.013 33.7944C60.406 36.2942 63.6359 37.38 67.2859 37.38V31.38ZM62.378 29.6775C61.373 28.5967 60.672 26.8865 60.672 24.12H54.672C54.672 27.8895 55.644 31.246 57.983 33.7625L62.378 29.6775ZM60.672 24.12C60.672 21.3506 61.374 19.6651 62.363 18.616L57.998 14.5C55.643 16.9976 54.672 20.3534 54.672 24.12H60.672ZM67.2859 33.694C69.628 33.694 71.755 32.7787 73.1499 30.7507C74.4049 28.9252 74.808 26.5622 74.808 24.12H68.808C68.808 26.0605 68.4579 26.9845 68.2059 27.3503C68.1059 27.4958 68.026 27.5496 67.957 27.5834C67.873 27.6241 67.6759 27.694 67.2859 27.694V33.694ZM74.808 24.12C74.808 21.6778 74.4049 19.3148 73.1499 17.4893C71.755 15.4613 69.628 14.546 67.2859 14.546V20.546C67.6759 20.546 67.873 20.6159 67.957 20.6566C68.026 20.6904 68.1059 20.7442 68.2059 20.8897C68.4579 21.2555 68.808 22.1795 68.808 24.12H74.808ZM67.2859 14.546C64.9829 14.546 62.873 15.4244 61.463 17.3983L66.3459 20.8857C66.4559 20.7316 66.601 20.546 67.2859 20.546V14.546ZM61.455 17.4096C60.175 19.2191 59.802 21.6499 59.802 24.12H65.802C65.802 22.0301 66.164 21.1422 66.354 20.8744L61.455 17.4096ZM59.802 24.12C59.802 26.6 60.179 29.0205 61.436 30.8406L66.373 27.4314C66.16 27.1235 65.802 26.2 65.802 24.12H59.802ZM61.483 30.9075C62.905 32.8502 65.0109 33.694 67.2859 33.694V27.694C66.572 27.694 66.424 27.4991 66.325 27.3645L61.483 30.9075ZM101.094 12.074L99.71 14.7361L104.094 17.0136V12.074H101.094ZM90.416 10.934L92.403 13.181L90.416 10.934ZM92.962 17.28L92.013 20.126L92.032 20.1324L92.0509 20.1385L92.962 17.28ZM100.068 21.004L97.888 23.065L97.8979 23.0754L97.907 23.0857L100.068 21.004ZM84.754 32.556H81.754V34.3465L83.33 35.1965L84.754 32.556ZM84.754 27.806L86.45 25.3314L81.754 22.1128V27.806H84.754ZM95.812 24.044L93.6069 26.0788L93.627 26.1004L93.647 26.1216L95.812 24.044ZM92.7339 22.296L93.727 19.4652L93.705 19.4574L93.682 19.4499L92.7339 22.296ZM86.1219 18.61L83.925 20.6528L83.934 20.6631L83.944 20.6732L86.1219 18.61ZM86.4259 7.89404L84.4579 5.62944L86.4259 7.89404ZM101.094 7.40004H104.094V5.39204L102.237 4.62664L101.094 7.40004ZM102.477 9.41194C99.516 7.87344 96.448 7.06004 93.304 7.06004V13.06C95.378 13.06 97.503 13.5893 99.71 14.7361L102.477 9.41194ZM93.304 7.06004C91.623 7.06004 89.8339 7.44334 88.4279 8.68704L92.403 13.181C92.315 13.2594 92.451 13.06 93.304 13.06V7.06004ZM88.4279 8.68704C87.0079 9.94334 86.4279 11.6387 86.4279 13.366H92.4279C92.4279 13.1628 92.4599 13.0945 92.4539 13.1081C92.452 13.1144 92.444 13.13 92.431 13.149C92.417 13.168 92.406 13.1788 92.403 13.181L88.4279 8.68704ZM86.4279 13.366C86.4279 14.99 86.977 16.4969 88.084 17.723C89.134 18.8857 90.536 19.6336 92.013 20.126L93.91 14.4339C93.032 14.1411 92.6659 13.844 92.5379 13.702C92.4819 13.6399 92.464 13.6013 92.4559 13.5795C92.4469 13.5559 92.4279 13.4939 92.4279 13.366H86.4279ZM92.0509 20.1385C95.341 21.1865 97.107 22.2396 97.888 23.065L102.248 18.943C100.393 16.9818 97.422 15.5522 93.8719 14.4215L92.0509 20.1385ZM97.907 23.0857C98.6349 23.8412 99.082 24.8557 99.082 26.4H105.082C105.082 23.5363 104.185 20.9535 102.228 18.9223L97.907 23.0857ZM99.082 26.4C99.082 28.4157 98.493 29.4431 97.737 30.0583C96.863 30.7697 95.216 31.38 92.278 31.38V37.38C95.875 37.38 99.13 36.6603 101.524 34.7117C104.037 32.6669 105.082 29.7043 105.082 26.4H99.082ZM92.278 31.38C89.974 31.38 87.9609 30.8774 86.1779 29.9155L83.33 35.1965C86.056 36.6666 89.059 37.38 92.278 37.38V31.38ZM87.754 32.556V27.806H81.754V32.556H87.754ZM83.058 30.2806C85.765 32.1359 88.7299 33.124 91.8979 33.124V27.124C90.0499 27.124 88.252 26.5667 86.45 25.3314L83.058 30.2806ZM91.8979 33.124C93.798 33.124 95.772 32.7798 97.326 31.6052C99.038 30.3109 99.724 28.4152 99.724 26.476H93.724C93.724 26.7567 93.677 26.8611 93.677 26.8615C93.677 26.8618 93.683 26.8498 93.695 26.8339C93.708 26.8181 93.715 26.8134 93.7079 26.8188C93.6529 26.8602 93.214 27.124 91.8979 27.124V33.124ZM99.724 26.476C99.724 24.8188 99.1889 23.23 97.976 21.9664L93.647 26.1216C93.673 26.1484 93.6799 26.1622 93.687 26.1804C93.696 26.2049 93.724 26.2915 93.724 26.476H99.724ZM98.016 22.0092C96.918 20.8193 95.348 20.0341 93.727 19.4652L91.74 25.1268C93.007 25.5712 93.49 25.9514 93.6069 26.0788L98.016 22.0092ZM93.682 19.4499C90.855 18.5074 89.182 17.4781 88.299 16.5468L83.944 20.6732C85.797 22.6299 88.533 24.058 91.785 25.142L93.682 19.4499ZM88.319 16.5672C87.515 15.7026 87.108 14.6941 87.108 13.366H81.108C81.108 16.1419 82.043 18.6293 83.925 20.6528L88.319 16.5672ZM87.108 13.366C87.108 11.8071 87.591 10.8559 88.393 10.1586L84.4579 5.62944C82.1699 7.61754 81.108 10.3143 81.108 13.366H87.108ZM88.393 10.1586C89.223 9.43784 90.598 8.88004 92.924 8.88004V2.88004C89.6759 2.88004 86.7189 3.66484 84.4579 5.62944L88.393 10.1586ZM92.924 8.88004C95.5689 8.88004 97.8979 9.32724 99.95 10.1734L102.237 4.62664C99.375 3.44614 96.257 2.88004 92.924 2.88004V8.88004ZM98.0939 7.40004V12.074H104.094V7.40004H98.0939ZM117.018 6.26004H120.018V3.26004H117.018V6.26004ZM117.018 18.306H114.018V21.306H117.018V18.306ZM117.094 18.306V21.306H118.604L119.504 20.0926L117.094 18.306ZM126.024 6.26004V3.26004H124.513L123.614 4.47344L126.024 6.26004ZM132.218 6.26004L134.593 8.09244L138.321 3.26004H132.218V6.26004ZM121.958 19.56L119.582 17.7276L118.201 19.5186L119.543 21.3396L121.958 19.56ZM132.598 34V37H138.535L135.013 32.2204L132.598 34ZM126.404 34L123.953 35.7303L124.849 37H126.404V34ZM117.094 20.814L119.544 19.0837L118.648 17.814H117.094V20.814ZM117.018 20.814V17.814H114.018V20.814H117.018ZM117.018 34V37H120.018V34H117.018ZM111.698 34H108.698V37H111.698V34ZM111.698 6.26004V3.26004H108.698V6.26004H111.698ZM114.018 6.26004V18.306H120.018V6.26004H114.018ZM117.018 21.306H117.094V15.306H117.018V21.306ZM119.504 20.0926L128.434 8.04664L123.614 4.47344L114.684 16.5194L119.504 20.0926ZM126.024 9.26004H132.218V3.26004H126.024V9.26004ZM129.842 4.42764L119.582 17.7276L124.333 21.3924L134.593 8.09244L129.842 4.42764ZM119.543 21.3396L130.183 35.7796L135.013 32.2204L124.373 17.7804L119.543 21.3396ZM132.598 31H126.404V37H132.598V31ZM128.854 32.2697L119.544 19.0837L114.643 22.5443L123.953 35.7303L128.854 32.2697ZM117.094 17.814H117.018V23.814H117.094V17.814ZM114.018 20.814V34H120.018V20.814H114.018ZM117.018 31H111.698V37H117.018V31ZM114.698 34V6.26004H108.698V34H114.698ZM111.698 9.26004H117.018V3.26004H111.698V9.26004ZM147.121 4.89204L146.667 1.92664L143.651 2.38894L144.164 5.39654L147.121 4.89204ZM152.327 4.09404L155.287 3.60464L154.804 0.679443L151.873 1.12864L152.327 4.09404ZM154.607 15.114L151.69 15.8121L152.524 19.2987L155.809 17.8629L154.607 15.114ZM169.389 10.554L172.326 9.94214L171.704 6.95274L168.726 7.62844L169.389 10.554ZM170.339 15.114L170.996 18.0413L173.879 17.3949L173.276 14.5021L170.339 15.114ZM154.265 20.472L152.821 17.8426L152.813 17.8469L154.265 20.472ZM170.035 30.314L173.015 29.9664L172.655 26.8823L169.586 27.3479L170.035 30.314ZM170.567 34.874L171.03 37.8381L173.882 37.3931L173.547 34.5264L170.567 34.874ZM147.159 33.544L148.811 31.0397L147.159 33.544ZM149.743 17.66L151.364 20.1845L153.16 19.0317L152.66 16.9572L149.743 17.66ZM147.576 7.85744L152.782 7.05944L151.873 1.12864L146.667 1.92664L147.576 7.85744ZM149.368 4.58344C149.914 7.88804 150.69 11.633 151.69 15.8121L157.525 14.4159C156.549 10.3363 155.805 6.73474 155.287 3.60464L149.368 4.58344ZM155.809 17.8629C159.4 16.2933 164.129 14.8237 170.053 13.4796L168.726 7.62844C162.591 9.02034 157.466 10.5907 153.406 12.3651L155.809 17.8629ZM166.452 11.1659L167.402 15.7259L173.276 14.5021L172.326 9.94214L166.452 11.1659ZM169.683 12.1867C162.467 13.8044 156.787 15.6643 152.821 17.8426L155.71 23.1014C158.939 21.3277 163.974 19.6156 170.996 18.0413L169.683 12.1867ZM152.813 17.8469C150.875 18.9192 149.222 20.0962 148.021 21.4244C146.806 22.7693 145.907 24.4426 145.907 26.4H151.907C151.907 26.3814 151.902 26.0787 152.473 25.4476C153.058 24.7998 154.084 24.0008 155.718 23.0971L152.813 17.8469ZM145.907 26.4C145.907 27.6853 146.2 28.9532 146.885 30.0999C147.568 31.2426 148.543 32.1018 149.659 32.7248C151.802 33.9202 154.629 34.34 157.761 34.34V28.34C154.991 28.34 153.391 27.9365 152.583 27.4852C152.224 27.2849 152.091 27.1149 152.036 27.0226C151.983 26.9343 151.907 26.7613 151.907 26.4H145.907ZM157.761 34.34C161.616 34.34 165.861 33.9815 170.485 33.2801L169.586 27.3479C165.191 28.0145 161.253 28.34 157.761 28.34V34.34ZM167.056 30.6616L167.588 35.2216L173.547 34.5264L173.015 29.9664L167.056 30.6616ZM170.105 31.9099C165.865 32.5716 161.751 32.9 157.761 32.9V38.9C162.081 38.9 166.505 38.5444 171.03 37.8381L170.105 31.9099ZM157.761 32.9C153.321 32.9 150.479 32.1399 148.811 31.0397L145.508 36.0483C148.602 38.0894 152.828 38.9 157.761 38.9V32.9ZM148.811 31.0397C147.327 30.0608 146.587 28.7408 146.587 26.666H140.587C140.587 30.6205 142.229 33.8858 145.508 36.0483L148.811 31.0397ZM146.587 26.666C146.587 24.7298 147.704 22.5344 151.364 20.1845L148.123 15.1355C143.575 18.0549 140.587 21.8635 140.587 26.666H146.587ZM152.66 16.9572C151.663 12.8182 150.802 8.62834 150.079 4.38754L144.164 5.39654C144.91 9.76904 145.798 14.0912 146.827 18.3628L152.66 16.9572ZM216.319 14.24V17.24H219.319V14.24H216.319ZM210.125 14.24V11.24H207.125V14.24H210.125ZM210.125 24.918H207.125V26.3788L208.275 27.2797L210.125 24.918ZM216.509 30.998L218.631 33.1193L220.705 31.0455L218.678 28.9252L216.509 30.998ZM213.317 34.19L211.104 36.215L213.221 38.529L215.439 36.3113L213.317 34.19ZM209.859 30.656L211.935 28.49L208.107 24.8216L206.934 29.992L209.859 30.656ZM195.457 34.076L197.382 31.7744L197.371 31.7651L197.359 31.7558L195.457 34.076ZM195.419 23.474L193.518 21.1538L193.508 21.1615L193.499 21.1693L195.419 23.474ZM205.299 22.106L204.33 24.945L208.299 26.3005V22.106H205.299ZM205.299 14.24H208.299V11.24H205.299V14.24ZM194.393 14.24H191.393V17.24H194.393V14.24ZM194.393 9.94604V6.94604H191.393V9.94604H194.393ZM205.299 9.94604V12.946H208.299V9.94604H205.299ZM205.299 4.09404V1.09404H202.299V4.09404H205.299ZM210.125 4.09404H213.125V1.09404H210.125V4.09404ZM210.125 9.94604H207.125V12.946H210.125V9.94604ZM216.319 9.94604H219.319V6.94604H216.319V9.94604ZM190.631 5.15804L193.533 5.91914L194.407 2.58954L190.989 2.17944L190.631 5.15804ZM190.631 35.482L190.989 38.4606L194.407 38.0505L193.533 34.7209L190.631 35.482ZM185.881 36.052L182.979 36.8117L183.642 39.3423L186.239 39.0306L185.881 36.052ZM185.881 4.58804L186.239 1.60944L183.642 1.29774L182.979 3.82834L185.881 4.58804ZM205.299 26.97H208.299V25.2336L206.794 24.3687L205.299 26.97ZM204.463 30.884L206.585 33.0053L206.608 32.9818L206.631 32.9577L204.463 30.884ZM216.319 11.24H210.125V17.24H216.319V11.24ZM207.125 14.24V24.918H213.125V14.24H207.125ZM208.275 27.2797C209.618 28.3311 211.623 30.2278 214.341 33.0708L218.678 28.9252C215.923 26.0429 213.673 23.8862 211.975 22.5563L208.275 27.2797ZM214.388 28.8767L211.196 32.0687L215.439 36.3113L218.631 33.1193L214.388 28.8767ZM215.531 32.165C214.395 30.9238 213.197 29.6989 211.935 28.49L207.784 32.822C208.954 33.9438 210.061 35.0749 211.104 36.215L215.531 32.165ZM206.934 29.992C206.669 31.1608 206.183 31.7949 205.596 32.1951C204.945 32.6386 203.839 33.014 201.993 33.014V39.014C204.581 39.014 207.003 38.4964 208.974 37.1539C211.008 35.7681 212.24 33.7232 212.785 31.32L206.934 29.992ZM201.993 33.014C199.609 33.014 198.208 32.4653 197.382 31.7744L193.533 36.3776C195.798 38.2707 198.754 39.014 201.993 39.014V33.014ZM197.359 31.7558C196.629 31.157 196.139 30.2788 196.139 28.68H190.139C190.139 31.7425 191.196 34.4617 193.556 36.3962L197.359 31.7558ZM196.139 28.68C196.139 27.2519 196.587 26.4059 197.34 25.7787L193.499 21.1693C191.212 23.0754 190.139 25.7001 190.139 28.68H196.139ZM197.321 25.7942C198.144 25.1194 199.564 24.574 201.993 24.574V18.574C198.748 18.574 195.785 19.2953 193.518 21.1538L197.321 25.7942ZM201.993 24.574C202.849 24.574 203.622 24.7034 204.33 24.945L206.269 19.2669C204.899 18.7993 203.468 18.574 201.993 18.574V24.574ZM208.299 22.106V14.24H202.299V22.106H208.299ZM205.299 11.24H194.393V17.24H205.299V11.24ZM197.393 14.24V9.94604H191.393V14.24H197.393ZM194.393 12.946H205.299V6.94604H194.393V12.946ZM208.299 9.94604V4.09404H202.299V9.94604H208.299ZM205.299 7.09404H210.125V1.09404H205.299V7.09404ZM207.125 4.09404V9.94604H213.125V4.09404H207.125ZM210.125 12.946H216.319V6.94604H210.125V12.946ZM213.319 9.94604V14.24H219.319V9.94604H213.319ZM187.73 4.39694C186.44 9.31354 185.807 14.6267 185.807 20.32H191.807C191.807 15.0693 192.391 10.2745 193.533 5.91914L187.73 4.39694ZM185.807 20.32C185.807 26.0133 186.44 31.3265 187.73 36.2431L193.533 34.7209C192.391 30.3655 191.807 25.5707 191.807 20.32H185.807ZM190.274 32.5034L185.524 33.0734L186.239 39.0306L190.989 38.4606L190.274 32.5034ZM188.784 35.2923C187.59 30.7312 186.981 25.7455 186.981 20.32H180.981C180.981 26.1932 181.64 31.6954 182.979 36.8117L188.784 35.2923ZM186.981 20.32C186.981 14.8945 187.59 9.90884 188.784 5.34774L182.979 3.82834C181.64 8.94464 180.981 14.4468 180.981 20.32H186.981ZM185.524 7.56664L190.274 8.13664L190.989 2.17944L186.239 1.60944L185.524 7.56664ZM206.794 24.3687C205.23 23.4703 203.542 22.944 201.765 22.944V28.944C202.32 28.944 202.988 29.1017 203.805 29.5713L206.794 24.3687ZM201.765 22.944C200.195 22.944 198.484 23.1991 197.094 24.1614C195.504 25.2621 194.813 26.9416 194.813 28.68H200.813C200.813 28.5851 200.83 28.6468 200.763 28.7844C200.69 28.9366 200.582 29.0439 200.509 29.0946C200.455 29.1319 200.493 29.0885 200.711 29.0382C200.929 28.9878 201.27 28.944 201.765 28.944V22.944ZM194.813 28.68C194.813 30.3972 195.412 32.1377 196.972 33.3379C198.383 34.4234 200.147 34.72 201.765 34.72V28.72C201.289 28.72 200.973 28.6732 200.782 28.624C200.594 28.5759 200.574 28.5384 200.631 28.5821C200.703 28.638 200.775 28.7286 200.813 28.8172C200.844 28.8878 200.813 28.8657 200.813 28.68H194.813ZM201.765 34.72C203.359 34.72 205.214 34.3758 206.585 33.0053L202.342 28.7627C202.469 28.6357 202.557 28.6224 202.483 28.6454C202.396 28.6725 202.175 28.72 201.765 28.72V34.72ZM206.631 32.9577C207.975 31.5533 208.299 29.6599 208.299 28.034H202.299C202.299 28.495 202.249 28.7627 202.212 28.8901C202.177 29.0078 202.175 28.9363 202.296 28.8103L206.631 32.9577ZM208.299 28.034V26.97H202.299V28.034H208.299Z" fill="#263024"/>
<path d="M23.7446 6.25999V10.668H16.1826V34H10.7866V10.668H3.22461V6.25999H23.7446ZM27.0916 34L36.3256 6.25999H42.0256L51.2976 34H45.5976L43.7356 27.312H34.5016L32.6016 34H27.0916ZM35.6416 23.246H42.5956L39.1376 10.934H39.0616L35.6416 23.246ZM60.1816 16.558C61.8796 14.7593 64.2476 13.86 67.2876 13.86C70.3276 13.86 72.6966 14.7593 74.3936 16.558C76.0916 18.3567 76.9396 20.8773 76.9396 24.12C76.9396 27.3627 76.0916 29.8833 74.3936 31.682C72.6966 33.4807 70.3276 34.38 67.2876 34.38C64.2476 34.38 61.8796 33.4933 60.1816 31.72C58.5096 29.9213 57.6736 27.388 57.6736 24.12C57.6736 20.852 58.5096 18.3313 60.1816 16.558ZM67.2876 30.694C70.3026 30.694 71.8096 28.5027 71.8096 24.12C71.8096 19.7373 70.3026 17.546 67.2876 17.546C65.7936 17.546 64.6656 18.078 63.9056 19.142C63.1716 20.1807 62.8036 21.84 62.8036 24.12C62.8036 26.4 63.1716 28.072 63.9056 29.136C64.6656 30.1747 65.7936 30.694 67.2876 30.694ZM101.096 12.074C98.5116 10.7313 95.9146 10.06 93.3056 10.06C92.0386 10.06 91.0756 10.3513 90.4176 10.934C89.7586 11.5167 89.4296 12.3273 89.4296 13.366C89.4296 15.19 90.6076 16.4947 92.9636 17.28C96.3836 18.3693 98.7516 19.6107 100.07 21.004C101.412 22.3973 102.084 24.196 102.084 26.4C102.084 31.72 98.8156 34.38 92.2796 34.38C89.5176 34.38 87.0096 33.772 84.7556 32.556V27.806C87.0096 29.3513 89.3916 30.124 91.8996 30.124C95.1166 30.124 96.7256 28.908 96.7256 26.476C96.7256 25.488 96.4216 24.6773 95.8136 24.044C95.2056 23.3853 94.1796 22.8027 92.7356 22.296C89.6956 21.2827 87.4916 20.054 86.1236 18.61C84.7806 17.166 84.1096 15.418 84.1096 13.366C84.1096 11.0607 84.8816 9.23669 86.4276 7.89399C87.9726 6.55129 90.1386 5.87999 92.9256 5.87999C95.9146 5.87999 98.6376 6.38669 101.096 7.39999V12.074ZM117.02 6.25999V18.306H117.096L126.026 6.25999H132.22L121.96 19.56L132.6 34H126.406L117.096 20.814H117.02V34H111.7V6.25999H117.02ZM147.123 4.89199L152.329 4.09399C152.861 7.31129 153.621 10.9847 154.609 15.114C158.435 13.442 163.362 11.922 169.391 10.554L170.341 15.114C163.223 16.71 157.865 18.496 154.267 20.472C150.695 22.448 148.909 24.424 148.909 26.4C148.909 29.6933 151.861 31.34 157.763 31.34C161.437 31.34 165.528 30.998 170.037 30.314L170.569 34.874C166.187 35.558 161.918 35.9 157.763 35.9C153.077 35.9 149.543 35.1147 147.161 33.544C144.78 31.9733 143.589 29.6807 143.589 26.666C143.589 23.2967 145.641 20.2947 149.745 17.66C148.732 13.4547 147.858 9.19869 147.123 4.89199ZM216.321 14.24H210.127V24.918C211.647 26.1087 213.775 28.1353 216.511 30.998L213.319 34.19C212.23 32.9993 211.077 31.8213 209.861 30.656C209.051 34.228 206.429 36.014 201.995 36.014C199.183 36.014 197.005 35.368 195.459 34.076C193.914 32.8093 193.141 31.0107 193.141 28.68C193.141 26.476 193.901 24.7407 195.421 23.474C196.967 22.2073 199.158 21.574 201.995 21.574C203.161 21.574 204.263 21.7513 205.301 22.106V14.24H194.395V9.94599H205.301V4.09399H210.127V9.94599H216.321V14.24ZM190.633 5.15799C189.417 9.79399 188.809 14.848 188.809 20.32C188.809 25.792 189.417 30.846 190.633 35.482L185.883 36.052C184.617 31.2133 183.983 25.9693 183.983 20.32C183.983 14.6707 184.617 9.42669 185.883 4.58799L190.633 5.15799ZM205.301 26.97C204.111 26.286 202.933 25.944 201.767 25.944C199.133 25.944 197.815 26.856 197.815 28.68C197.815 30.7067 199.133 31.72 201.767 31.72C203.009 31.72 203.908 31.4413 204.465 30.884C205.023 30.3013 205.301 29.3513 205.301 28.034V26.97Z" fill="white"/>
</svg>
