<svg width="206" height="43" viewBox="0 0 206 43" fill="none" xmlns="http://www.w3.org/2000/svg">
<path d="M7.23322 5.89194L6.77822 2.92695L3.76322 3.38895L4.27622 6.39595L7.23322 5.89194ZM12.4392 5.09395L15.3992 4.60495L14.9152 1.67895L11.9842 2.12894L12.4392 5.09395ZM14.7192 16.1139L11.8012 16.8119L12.6362 20.2989L15.9202 18.863L14.7192 16.1139ZM29.5012 11.5539L32.4382 10.9419L31.8152 7.95295L28.8372 8.62794L29.5012 11.5539ZM30.4512 16.1139L31.1072 19.0409L33.9912 18.395L33.3882 15.5019L30.4512 16.1139ZM14.3772 21.4719L12.9332 18.8429L12.9252 18.8469L14.3772 21.4719ZM30.1472 31.3139L33.1272 30.966L32.7672 27.882L29.6972 28.348L30.1472 31.3139ZM30.6792 35.8739L31.1422 38.8379L33.9932 38.393L33.6592 35.5259L30.6792 35.8739ZM7.27122 34.544L8.92322 32.0399L7.27122 34.544ZM9.85522 18.66L11.4762 21.1849L13.2712 20.0319L12.7722 17.9569L9.85522 18.66ZM7.68822 8.85695L12.8942 8.05894L11.9842 2.12894L6.77822 2.92695L7.68822 8.85695ZM9.47922 5.58295C10.0262 8.88795 10.8012 12.6329 11.8012 16.8119L17.6372 15.4159C16.6612 11.3359 15.9162 7.73495 15.3992 4.60495L9.47922 5.58295ZM15.9202 18.863C19.5122 17.293 24.2412 15.8239 30.1652 14.4799L28.8372 8.62794C22.7022 10.0199 17.5772 11.5909 13.5172 13.3649L15.9202 18.863ZM26.5642 12.1659L27.5142 16.7259L33.3882 15.5019L32.4382 10.9419L26.5642 12.1659ZM29.7952 13.1869C22.5792 14.8039 16.8982 16.6639 12.9332 18.8429L15.8212 24.1009C19.0512 22.3279 24.0862 20.6159 31.1072 19.0409L29.7952 13.1869ZM12.9252 18.8469C10.9862 19.9189 9.33322 21.0959 8.13322 22.4239C6.91722 23.7689 6.01922 25.4429 6.01922 27.3999H12.0192C12.0192 27.3809 12.0142 27.0789 12.5842 26.4479C13.1702 25.7999 14.1962 25.0009 15.8292 24.0969L12.9252 18.8469ZM6.01922 27.3999C6.01922 28.6849 6.31222 29.953 6.99722 31.1C7.68022 32.243 8.65422 33.102 9.77122 33.725C11.9132 34.92 14.7412 35.3399 17.8732 35.3399V29.3399C15.1022 29.3399 13.5032 28.9359 12.6942 28.4849C12.3352 28.2849 12.2032 28.1149 12.1482 28.0229C12.0952 27.9339 12.0192 27.7609 12.0192 27.3999H6.01922ZM17.8732 35.3399C21.7282 35.3399 25.9732 34.9819 30.5972 34.2799L29.6972 28.348C25.3032 29.014 21.3652 29.3399 17.8732 29.3399V35.3399ZM27.1672 31.6619L27.6992 36.2219L33.6592 35.5259L33.1272 30.966L27.1672 31.6619ZM30.2162 32.91C25.9772 33.5719 21.8632 33.8999 17.8732 33.8999V39.8999C22.1932 39.8999 26.6162 39.5439 31.1422 38.8379L30.2162 32.91ZM17.8732 33.8999C13.4332 33.8999 10.5912 33.1399 8.92322 32.0399L5.61922 37.048C8.71422 39.089 12.9402 39.8999 17.8732 39.8999V33.8999ZM8.92322 32.0399C7.43922 31.0609 6.69922 29.7409 6.69922 27.6659H0.699219C0.699219 31.6209 2.34122 34.886 5.61922 37.048L8.92322 32.0399ZM6.69922 27.6659C6.69922 25.7299 7.81522 23.5339 11.4762 21.1849L8.23422 16.1349C3.68722 19.0549 0.699219 22.8629 0.699219 27.6659H6.69922ZM12.7722 17.9569C11.7742 13.8179 10.9142 9.62795 10.1902 5.38795L4.27622 6.39595C5.02222 10.769 5.90922 15.091 6.93822 19.363L12.7722 17.9569ZM66.3232 4.25795L68.6522 2.36694L66.8292 0.121948L64.5192 1.86095L66.3232 4.25795ZM69.4392 8.09595L71.2472 10.4899L73.7262 8.61694L71.7682 6.20495L69.4392 8.09595ZM56.0252 17.4819L57.6302 20.016L57.6362 20.0129L56.0252 17.4819ZM53.0992 19.4579L55.0062 21.7739L53.0992 19.4579ZM53.0232 21.6239L55.0702 19.4309L53.0232 21.6239ZM55.6832 23.5619L57.3682 21.0799L57.3582 21.0729L55.6832 23.5619ZM70.5792 34.7339L72.7792 36.7739L74.9452 34.438L72.4832 32.4159L70.5792 34.7339ZM67.1972 38.382L65.3062 40.7109L67.4872 42.4819L69.3972 40.4219L67.1972 38.382ZM52.7192 27.4759L51.0182 29.947L51.0202 29.949L52.7192 27.4759ZM47.5892 23.5239L45.3172 25.4829L45.3362 25.505L45.3552 25.5269L47.5892 23.5239ZM47.6652 17.4439L49.8612 19.488L47.6652 17.4439ZM52.8332 13.6819L54.4542 16.2059L54.4622 16.201L52.8332 13.6819ZM63.9942 6.14895L67.1102 9.98695L71.7682 6.20495L68.6522 2.36694L63.9942 6.14895ZM67.6312 5.70195C62.9202 9.26095 58.5152 12.3419 54.4142 14.9509L57.6362 20.0129C61.8952 17.3019 66.4332 14.1259 71.2472 10.4899L67.6312 5.70195ZM54.4202 14.9479C52.9352 15.8879 51.7932 16.6469 51.1922 17.1419L55.0062 21.7739C55.2662 21.5599 56.0752 21.001 57.6302 20.016L54.4202 14.9479ZM51.1922 17.1419C50.4022 17.7919 49.4532 18.9269 49.4532 20.5599H55.4532C55.4532 20.9649 55.3312 21.2969 55.2032 21.5169C55.0862 21.7149 54.9832 21.7929 55.0062 21.7739L51.1922 17.1419ZM49.4532 20.5599C49.4532 22.0689 50.2732 23.1609 50.9762 23.8169L55.0702 19.4309C55.0132 19.3769 55.4532 19.7599 55.4532 20.5599H49.4532ZM50.9762 23.8169C51.5632 24.3649 52.6602 25.1439 54.0082 26.0509L57.3582 21.0729C55.9202 20.1059 55.2432 19.5929 55.0702 19.4309L50.9762 23.8169ZM53.9982 26.044C58.8832 29.359 63.7752 33.0279 68.6752 37.0519L72.4832 32.4159C67.4522 28.2829 62.4142 24.5039 57.3682 21.0799L53.9982 26.044ZM68.3792 32.6939L64.9972 36.3419L69.3972 40.4219L72.7792 36.7739L68.3792 32.6939ZM69.0882 36.0529C63.9202 31.8569 59.0302 28.173 54.4182 25.003L51.0202 29.949C55.4772 33.011 60.2392 36.5969 65.3062 40.7109L69.0882 36.0529ZM54.4202 25.005C51.5802 23.051 50.1962 21.9379 49.8232 21.5209L45.3552 25.5269C46.2992 26.5799 48.3352 28.101 51.0182 29.947L54.4202 25.005ZM49.8612 21.5649C49.8172 21.5129 49.6392 21.2889 49.6392 20.5599H43.6392C43.6392 22.3139 44.0952 24.0649 45.3172 25.4829L49.8612 21.5649ZM49.6392 20.5599C49.6392 19.7139 49.8482 19.502 49.8612 19.488L45.4692 15.3999C44.1142 16.8549 43.6392 18.7199 43.6392 20.5599H49.6392ZM49.8612 19.488C50.2392 19.082 51.6172 18.0279 54.4542 16.2059L51.2122 11.1579C48.5262 12.8829 46.4592 14.3369 45.4692 15.3999L49.8612 19.488ZM54.4622 16.201C59.1082 13.198 63.6632 10.0159 68.1272 6.65495L64.5192 1.86095C60.1672 5.13695 55.7292 8.23795 51.2042 11.1629L54.4622 16.201ZM87.1852 13.4539H84.1852V16.4539H87.1852V13.4539ZM87.1852 9.15995V6.15995H84.1852V9.15995H87.1852ZM95.5452 9.15995V12.16H98.0042L98.4872 9.74795L95.5452 9.15995ZM96.3052 4.44794L96.4952 1.45395L93.7172 1.27795L93.3342 4.03394L96.3052 4.44794ZM101.093 4.75195L104.072 5.10495L104.445 1.95895L101.283 1.75795L101.093 4.75195ZM100.409 9.15995L97.4632 8.59195L96.7752 12.16H100.409V9.15995ZM117.813 9.15995H120.813V6.15995H117.813V9.15995ZM117.813 13.4539V16.4539H120.813V13.4539H117.813ZM99.3832 13.4539V10.4539H97.1072L96.4942 12.646L99.3832 13.4539ZM97.2172 19.7999L94.4502 18.641L93.9182 19.91L94.5342 21.1419L97.2172 19.7999ZM97.2552 19.876L94.5722 21.2179L95.7942 23.6629L98.3422 22.6719L97.2552 19.876ZM113.025 20.598L111.086 22.8869L111.103 22.9009L111.12 22.9159L113.025 20.598ZM111.961 34.24L113.681 36.6979L113.686 36.6939L111.961 34.24ZM92.2012 35.8739L89.2562 35.3009L88.6962 38.1809L91.5632 38.8049L92.2012 35.8739ZM93.0372 31.5799L93.6752 28.6489L90.6782 27.9959L90.0922 31.007L93.0372 31.5799ZM108.313 31.048L109.931 33.574L108.313 31.048ZM94.7092 25.7279L93.5532 28.4969L95.0202 29.1089L96.3502 28.2389L94.7092 25.7279ZM90.3392 23.904L87.6422 22.5899L86.2502 25.4479L89.1832 26.673L90.3392 23.904ZM94.5192 13.4539L97.4042 14.2779L98.4962 10.4539H94.5192V13.4539ZM90.1852 13.4539V9.15995H84.1852V13.4539H90.1852ZM87.1852 12.16H95.5452V6.15995H87.1852V12.16ZM98.4872 9.74795C98.7322 8.52295 98.9952 6.88595 99.2762 4.86195L93.3342 4.03394C93.0582 6.01294 92.8142 7.51695 92.6032 8.57195L98.4872 9.74795ZM96.1152 7.44195L100.903 7.74595L101.283 1.75795L96.4952 1.45395L96.1152 7.44195ZM98.1142 4.39895C97.9452 5.82295 97.7282 7.21995 97.4632 8.59195L103.355 9.72794C103.647 8.21194 103.886 6.66995 104.072 5.10495L98.1142 4.39895ZM100.409 12.16H117.813V6.15995H100.409V12.16ZM114.813 9.15995V13.4539H120.813V9.15995H114.813ZM117.813 10.4539H99.3832V16.4539H117.813V10.4539ZM96.4942 12.646C95.8622 14.906 95.1792 16.901 94.4502 18.641L99.9842 20.9589C100.826 18.9499 101.587 16.7139 102.272 14.2619L96.4942 12.646ZM94.5342 21.1419L94.5722 21.2179L99.9382 18.5339L99.9002 18.4579L94.5342 21.1419ZM98.3422 22.6719C100.798 21.7169 103.024 21.2799 105.045 21.2799V15.2799C102.151 15.2799 99.1842 15.9069 96.1682 17.0799L98.3422 22.6719ZM105.045 21.2799C108.151 21.2799 110.006 21.9719 111.086 22.8869L114.964 18.309C112.396 16.133 108.931 15.2799 105.045 15.2799V21.2799ZM111.12 22.9159C112.145 23.7579 112.799 25.0099 112.799 27.1339H118.799C118.799 23.584 117.604 20.4779 114.93 18.2799L111.12 22.9159ZM112.799 27.1339C112.799 29.0239 112.056 30.5059 110.236 31.7859L113.686 36.6939C116.984 34.3759 118.799 31.1209 118.799 27.1339H112.799ZM110.241 31.7819C108.372 33.0899 105.635 33.8999 101.739 33.8999V39.8999C106.406 39.8999 110.483 38.9359 113.681 36.6979L110.241 31.7819ZM101.739 33.8999C98.7362 33.8999 95.7712 33.5809 92.8392 32.9429L91.5632 38.8049C94.9142 39.5349 98.3072 39.8999 101.739 39.8999V33.8999ZM95.1462 36.447L95.9822 32.1529L90.0922 31.007L89.2562 35.3009L95.1462 36.447ZM92.3992 34.5109C95.7082 35.2319 98.8252 35.6059 101.739 35.6059V29.6059C99.3332 29.6059 96.6492 29.2959 93.6752 28.6489L92.3992 34.5109ZM101.739 35.6059C104.837 35.6059 107.66 35.029 109.931 33.574L106.695 28.5219C105.723 29.1439 104.163 29.6059 101.739 29.6059V35.6059ZM109.931 33.574C112.294 32.061 113.745 29.786 113.745 26.906H107.745C107.745 27.471 107.575 27.958 106.695 28.5219L109.931 33.574ZM113.745 26.906C113.745 24.693 112.931 22.62 111.016 21.229C109.28 19.969 107.041 19.574 104.779 19.574V25.574C106.494 25.574 107.238 25.901 107.491 26.085C107.585 26.153 107.619 26.2039 107.646 26.2619C107.68 26.3369 107.745 26.526 107.745 26.906H113.745ZM104.779 19.574C100.643 19.574 96.7232 20.8279 93.0682 23.2169L96.3502 28.2389C99.1302 26.4229 101.923 25.574 104.779 25.574V19.574ZM95.8652 22.9589L91.4952 21.1349L89.1832 26.673L93.5532 28.4969L95.8652 22.9589ZM93.0362 25.2179C95.0102 21.1659 96.4792 17.5129 97.4042 14.2779L91.6342 12.6299C90.8362 15.4239 89.5192 18.7379 87.6422 22.5899L93.0362 25.2179ZM94.5192 10.4539H87.1852V16.4539H94.5192V10.4539ZM143.273 11.0599V8.05994H140.273V11.0599H143.273ZM147.833 11.0599H150.833V8.05994H147.833V11.0599ZM147.833 15.8099H144.833V18.8099H147.833V15.8099ZM156.763 15.8099H159.763V12.8099H156.763V15.8099ZM156.763 19.686V22.686H159.763V19.686H156.763ZM147.833 19.686V16.686H144.833V19.686H147.833ZM147.833 26.1079H144.833V28.0429L146.596 28.841L147.833 26.1079ZM157.257 32.378L159.594 34.2589L161.483 31.9109L159.127 30.0319L157.257 32.378ZM154.597 35.684L152.718 38.0229L155.055 39.9009L156.934 37.5649L154.597 35.684ZM147.795 30.7059L149.361 28.1469L145.029 25.4959L144.798 30.57L147.795 30.7059ZM145.933 35.6079L143.913 33.3899L143.899 33.4029L143.886 33.4149L145.933 35.6079ZM134.875 35.4559L132.887 37.7029L134.875 35.4559ZM134.913 26.184L136.803 28.514L136.816 28.503L136.829 28.492L134.913 26.184ZM143.273 24.7019L142.871 27.6749L146.273 28.1349V24.7019H143.273ZM143.273 28.6919H146.273V26.294L143.934 25.766L143.273 28.6919ZM142.665 32.7199L140.322 30.8459L140.316 30.8529L140.31 30.8609L142.665 32.7199ZM143.273 14.0599H147.833V8.05994H143.273V14.0599ZM144.833 11.0599V15.8099H150.833V11.0599H144.833ZM147.833 18.8099H156.763V12.8099H147.833V18.8099ZM153.763 15.8099V19.686H159.763V15.8099H153.763ZM156.763 16.686H147.833V22.686H156.763V16.686ZM144.833 19.686V26.1079H150.833V19.686H144.833ZM146.596 28.841C148.658 29.774 151.567 31.6779 155.387 34.7239L159.127 30.0319C155.195 26.8969 151.821 24.6199 149.07 23.3749L146.596 28.841ZM154.92 30.4969L152.26 33.8029L156.934 37.5649L159.594 34.2589L154.92 30.4969ZM156.476 33.3449C153.606 31.0389 151.222 29.2859 149.361 28.1469L146.229 33.2649C147.763 34.2029 149.913 35.7689 152.718 38.0229L156.476 33.3449ZM144.798 30.57C144.717 32.36 144.244 33.0889 143.913 33.3899L147.953 37.826C149.902 36.0499 150.671 33.5109 150.792 30.8419L144.798 30.57ZM143.886 33.4149C143.522 33.7539 142.666 34.2039 140.727 34.2039V40.2039C143.449 40.2039 146.064 39.5899 147.98 37.8009L143.886 33.4149ZM140.727 34.2039C138.539 34.2039 137.423 33.7049 136.863 33.2089L132.887 37.7029C134.961 39.5379 137.747 40.2039 140.727 40.2039V34.2039ZM136.863 33.2089C136.264 32.6789 135.899 31.9779 135.899 30.7819H129.899C129.899 33.4869 130.852 35.902 132.887 37.7029L136.863 33.2089ZM135.899 30.7819C135.899 29.5649 136.268 28.948 136.803 28.514L133.023 23.854C130.873 25.599 129.899 28.0469 129.899 30.7819H135.899ZM136.829 28.492C137.436 27.988 138.585 27.5119 140.727 27.5119V21.5119C137.802 21.5119 135.075 22.15 132.997 23.876L136.829 28.492ZM140.727 27.5119C141.325 27.5119 142.036 27.5619 142.871 27.6749L143.675 21.729C142.635 21.589 141.649 21.5119 140.727 21.5119V27.5119ZM146.273 24.7019V11.0599H140.273V24.7019H146.273ZM143.934 25.766C142.905 25.533 141.832 25.4259 140.727 25.4259V31.4259C141.445 31.4259 142.07 31.4959 142.612 31.6179L143.934 25.766ZM140.727 25.4259C139.344 25.4259 137.772 25.6499 136.476 26.5529C134.982 27.5939 134.345 29.1779 134.345 30.7819H140.345C140.345 30.7479 140.35 30.863 140.263 31.046C140.168 31.244 140.026 31.392 139.905 31.477C139.804 31.547 139.781 31.5289 139.926 31.4949C140.072 31.4619 140.328 31.4259 140.727 31.4259V25.4259ZM134.345 30.7819C134.345 32.3489 134.879 33.9889 136.336 35.1349C137.655 36.1729 139.288 36.4419 140.727 36.4419V30.4419C140.35 30.4419 140.123 30.4039 140.008 30.3739C139.898 30.3449 139.941 30.337 140.045 30.419C140.097 30.46 140.154 30.5149 140.206 30.5829C140.258 30.6519 140.295 30.7189 140.319 30.7749C140.366 30.8869 140.345 30.9119 140.345 30.7819H134.345ZM140.727 36.4419C142.096 36.4419 143.836 36.0779 145.02 34.5789L140.31 30.8609C140.399 30.7489 140.5 30.6549 140.604 30.5819C140.705 30.5109 140.792 30.4709 140.848 30.4499C140.949 30.4129 140.934 30.4419 140.727 30.4419V36.4419ZM145.008 34.5939C146.077 33.2579 146.273 31.5149 146.273 30.1359H140.273C140.273 30.5919 140.234 30.867 140.201 31.007C140.166 31.153 140.165 31.0429 140.322 30.8459L145.008 34.5939ZM146.273 30.1359V28.6919H140.273V30.1359H146.273ZM173.027 17.52L172.282 14.6139L169.422 15.3469L170.109 18.2179L173.027 17.52ZM182.261 15.6959L182.685 18.6659L182.695 18.6639L182.705 18.6629L182.261 15.6959ZM199.171 17.2539L197.297 19.5969L197.314 19.6099L197.331 19.6239L199.171 17.2539ZM196.663 32.5299L195.007 30.0279L196.663 32.5299ZM180.779 36.8999L177.844 37.5219L178.388 40.091L181.007 39.891L180.779 36.8999ZM179.829 32.4159L179.532 29.4309L176.2 29.7619L176.894 33.0379L179.829 32.4159ZM192.787 29.186L191.324 26.5669L191.314 26.5729L192.787 29.186ZM174.091 21.966L171.173 22.6639L171.866 25.557L174.764 24.8899L174.091 21.966ZM178.347 9.80595L175.371 9.42495L174.993 12.3719L177.937 12.7779L178.347 9.80595ZM178.917 5.35995L179.327 2.38795L176.327 1.97395L175.941 4.97894L178.917 5.35995ZM196.625 6.61395H199.625V3.61395H196.625V6.61395ZM196.625 11.174V14.174H199.625V11.174H196.625ZM173.772 20.4259C176.625 19.6949 179.596 19.1069 182.685 18.6659L181.837 12.7259C178.542 13.1969 175.357 13.8249 172.282 14.6139L173.772 20.4259ZM182.705 18.6629C185.837 18.1939 188.389 17.9739 190.393 17.9739V11.9739C187.989 11.9739 185.119 12.2349 181.817 12.7289L182.705 18.6629ZM190.393 17.9739C194.058 17.9739 196.171 18.6959 197.297 19.5969L201.045 14.9109C198.371 12.7719 194.632 11.9739 190.393 11.9739V17.9739ZM197.331 19.6239C198.509 20.5379 199.059 21.6439 199.059 23.2199H205.059C205.059 19.8309 203.684 16.959 201.011 14.8839L197.331 19.6239ZM199.059 23.2199C199.059 25.8969 197.891 28.1189 195.007 30.0279L198.319 35.0319C202.63 32.1779 205.059 28.1939 205.059 23.2199H199.059ZM195.007 30.0279C192.024 32.0029 187.318 33.3939 180.551 33.9089L181.007 39.891C188.224 39.342 194.107 37.8199 198.319 35.0319L195.007 30.0279ZM183.714 36.2779L182.764 31.794L176.894 33.0379L177.844 37.5219L183.714 36.2779ZM180.126 35.4009C186.103 34.8059 190.923 33.6799 194.26 31.7989L191.314 26.5729C189.077 27.8329 185.259 28.8599 179.532 29.4309L180.126 35.4009ZM194.25 31.8049C197.542 29.9659 200.005 27.2499 200.005 23.4859H194.005C194.005 24.1809 193.656 25.2639 191.324 26.5669L194.25 31.8049ZM200.005 23.4859C200.005 21.0979 198.864 19.1189 196.796 17.9239C194.977 16.8739 192.636 16.5339 190.165 16.5339V22.5339C192.254 22.5339 193.333 22.8529 193.794 23.1199C193.979 23.2269 193.995 23.2849 193.979 23.2559C193.963 23.2279 194.005 23.2709 194.005 23.4859H200.005ZM190.165 16.5339C186.14 16.5339 180.512 17.409 173.418 19.042L174.764 24.8899C181.755 23.2799 186.843 22.5339 190.165 22.5339V16.5339ZM177.009 21.268L175.945 16.822L170.109 18.2179L171.173 22.6639L177.009 21.268ZM181.323 10.1869L181.893 5.74094L175.941 4.97894L175.371 9.42495L181.323 10.1869ZM178.507 8.33195C184.689 9.18495 190.729 9.61395 196.625 9.61395V3.61395C191.02 3.61395 185.254 3.20695 179.327 2.38795L178.507 8.33195ZM193.625 6.61395V11.174H199.625V6.61395H193.625ZM196.625 8.17395C191.212 8.17395 185.259 7.73095 178.757 6.83395L177.937 12.7779C184.659 13.7049 190.891 14.174 196.625 14.174V8.17395Z" fill="#263024"/>
<path d="M7.23322 5.89205L12.4392 5.09406C12.9712 8.31106 13.7312 11.9851 14.7192 16.1141C18.5442 14.4421 23.4722 12.9221 29.5012 11.5541L30.4512 16.1141C23.3322 17.7101 17.9742 19.4961 14.3772 21.4721C10.8052 23.4481 9.01922 25.424 9.01922 27.4C9.01922 30.693 11.9702 32.34 17.8732 32.34C21.5462 32.34 25.6382 31.998 30.1472 31.314L30.6792 35.874C26.2962 36.558 22.0282 36.9 17.8732 36.9C13.1862 36.9 9.65223 36.1151 7.27122 34.5441C4.89022 32.9731 3.69922 30.6811 3.69922 27.6661C3.69922 24.2971 5.75122 21.2951 9.85522 18.6601C8.84222 14.4551 7.96822 10.1991 7.23322 5.89205ZM66.3232 4.25806L69.4392 8.09605C64.6762 11.6931 60.2052 14.822 56.0252 17.482C54.5052 18.445 53.5302 19.103 53.0992 19.458C52.6682 19.813 52.4532 20.1801 52.4532 20.5601C52.4532 20.9151 52.6432 21.269 53.0232 21.624C53.4032 21.979 54.2902 22.625 55.6832 23.562C60.6482 26.931 65.6142 30.655 70.5792 34.734L67.1972 38.3821C62.0802 34.2271 57.2542 30.5921 52.7192 27.4761C49.9582 25.5761 48.2482 24.2591 47.5892 23.5241C46.9562 22.7891 46.6392 21.8011 46.6392 20.5601C46.6392 19.2171 46.9812 18.1791 47.6652 17.4441C48.3492 16.7091 50.0722 15.4551 52.8332 13.6821C57.4182 10.7181 61.9152 7.57706 66.3232 4.25806ZM87.1852 13.4541V9.16006H95.5452C95.7732 8.02006 96.0262 6.44905 96.3052 4.44805L101.093 4.75205C100.916 6.24705 100.688 7.71606 100.409 9.16006H117.813V13.4541H99.3832C98.7242 15.8101 98.0022 17.9251 97.2172 19.8001L97.2552 19.8761C99.9912 18.8121 102.588 18.2801 105.045 18.2801C108.541 18.2801 111.201 19.0531 113.025 20.5981C114.874 22.1181 115.799 24.2971 115.799 27.1341C115.799 30.0731 114.52 32.4411 111.961 34.2401C109.428 36.0131 106.02 36.9 101.739 36.9C98.5222 36.9 95.3422 36.558 92.2012 35.874L93.0372 31.5801C96.1782 32.2641 99.0792 32.6061 101.739 32.6061C104.5 32.6061 106.692 32.0871 108.313 31.0481C109.934 30.0091 110.745 28.6291 110.745 26.9061C110.745 24.0181 108.756 22.5741 104.779 22.5741C101.283 22.5741 97.9262 23.625 94.7092 25.7281L90.3392 23.9041C92.2642 19.9521 93.6582 16.4691 94.5192 13.4541H87.1852ZM143.273 11.0601H147.833V15.8101H156.763V19.6861H147.833V26.1081C150.24 27.1971 153.381 29.2871 157.257 32.3781L154.597 35.6841C151.76 33.4041 149.492 31.745 147.795 30.706C147.694 32.935 147.073 34.5691 145.933 35.6081C144.793 36.6721 143.058 37.204 140.727 37.204C138.143 37.204 136.192 36.621 134.875 35.456C133.558 34.291 132.899 32.7331 132.899 30.7821C132.899 28.8061 133.57 27.2731 134.913 26.1841C136.256 25.0691 138.194 24.512 140.727 24.512C141.487 24.512 142.336 24.575 143.273 24.702V11.0601ZM143.273 28.6921C142.488 28.5151 141.639 28.426 140.727 28.426C138.472 28.426 137.345 29.2111 137.345 30.7821C137.345 32.5551 138.472 33.4421 140.727 33.4421C141.639 33.4421 142.285 33.2011 142.665 32.7201C143.07 32.2131 143.273 31.3521 143.273 30.1361V28.6921ZM173.027 17.5201C175.991 16.7601 179.069 16.1521 182.261 15.6961C185.478 15.2151 188.189 14.9741 190.393 14.9741C194.345 14.9741 197.271 15.7341 199.171 17.2541C201.096 18.7491 202.059 20.7371 202.059 23.2201C202.059 27.0451 200.26 30.1491 196.663 32.5301C193.066 34.9111 187.771 36.368 180.779 36.9L179.829 32.4161C185.681 31.8331 190 30.7571 192.787 29.1861C195.599 27.6151 197.005 25.715 197.005 23.486C197.005 20.851 194.725 19.534 190.165 19.534C186.492 19.534 181.134 20.3451 174.091 21.9661L173.027 17.5201ZM178.347 9.80605L178.917 5.36005C184.972 6.19605 190.874 6.61405 196.625 6.61405V11.1741C191.052 11.1741 184.959 10.7181 178.347 9.80605Z" fill="white"/>
</svg>
