<svg width="208" height="41" viewBox="0 0 208 41" fill="none" xmlns="http://www.w3.org/2000/svg">
<path d="M35.871 15.24V18.24H38.871V15.24H35.871ZM29.677 15.24V12.24H26.677V15.24H29.677ZM29.677 25.918H26.677V27.379L27.827 28.28L29.677 25.918ZM36.061 31.998L38.182 34.119L40.256 32.045L38.23 29.925L36.061 31.998ZM32.869 35.19L30.656 37.215L32.773 39.529L34.99 37.311L32.869 35.19ZM29.411 31.656L31.487 29.49L27.659 25.822L26.485 30.992L29.411 31.656ZM15.009 35.076L16.933 32.774L16.922 32.765L16.911 32.756L15.009 35.076ZM14.971 24.474L13.069 22.154L13.06 22.162L13.05 22.169L14.971 24.474ZM24.851 23.106L23.882 25.945L27.851 27.3V23.106H24.851ZM24.851 15.24H27.851V12.24H24.851V15.24ZM13.945 15.24H10.945V18.24H13.945V15.24ZM13.945 10.946V7.94601H10.945V10.946H13.945ZM24.851 10.946V13.946H27.851V10.946H24.851ZM24.851 5.09401V2.09401H21.851V5.09401H24.851ZM29.677 5.09401H32.677V2.09401H29.677V5.09401ZM29.677 10.946H26.677V13.946H29.677V10.946ZM35.871 10.946H38.871V7.94601H35.871V10.946ZM10.183 6.15802L13.085 6.91902L13.958 3.58902L10.54 3.17902L10.183 6.15802ZM10.183 36.482L10.54 39.461L13.958 39.05L13.085 35.721L10.183 36.482ZM5.433 37.052L2.531 37.812L3.193 40.342L5.79 40.031L5.433 37.052ZM5.433 5.58801L5.79 2.60901L3.193 2.29802L2.531 4.82802L5.433 5.58801ZM24.851 27.97H27.851V26.234L26.345 25.369L24.851 27.97ZM24.015 31.884L26.136 34.005L26.16 33.982L26.183 33.958L24.015 31.884ZM35.871 12.24H29.677V18.24H35.871V12.24ZM26.677 15.24V25.918H32.677V15.24H26.677ZM27.827 28.28C29.169 29.331 31.175 31.228 33.892 34.071L38.23 29.925C35.475 27.043 33.225 24.886 31.527 23.556L27.827 28.28ZM33.94 29.877L30.748 33.069L34.99 37.311L38.182 34.119L33.94 29.877ZM35.082 33.165C33.947 31.924 32.748 30.699 31.487 29.49L27.335 33.822C28.506 34.944 29.612 36.075 30.656 37.215L35.082 33.165ZM26.485 30.992C26.22 32.161 25.735 32.795 25.148 33.195C24.496 33.639 23.39 34.014 21.545 34.014V40.014C24.133 40.014 26.555 39.496 28.525 38.154C30.56 36.768 31.791 34.723 32.337 32.32L26.485 30.992ZM21.545 34.014C19.161 34.014 17.76 33.465 16.933 32.774L13.085 37.378C15.349 39.271 18.305 40.014 21.545 40.014V34.014ZM16.911 32.756C16.18 32.157 15.691 31.279 15.691 29.68H9.691C9.691 32.743 10.747 35.462 13.107 37.396L16.911 32.756ZM15.691 29.68C15.691 28.252 16.139 27.406 16.892 26.779L13.05 22.169C10.763 24.075 9.691 26.7 9.691 29.68H15.691ZM16.873 26.794C17.696 26.119 19.115 25.574 21.545 25.574V19.574C18.3 19.574 15.337 20.295 13.069 22.154L16.873 26.794ZM21.545 25.574C22.401 25.574 23.174 25.703 23.882 25.945L25.82 20.267C24.451 19.799 23.02 19.574 21.545 19.574V25.574ZM27.851 23.106V15.24H21.851V23.106H27.851ZM24.851 12.24H13.945V18.24H24.851V12.24ZM16.945 15.24V10.946H10.945V15.24H16.945ZM13.945 13.946H24.851V7.94601H13.945V13.946ZM27.851 10.946V5.09401H21.851V10.946H27.851ZM24.851 8.09401H29.677V2.09401H24.851V8.09401ZM26.677 5.09401V10.946H32.677V5.09401H26.677ZM29.677 13.946H35.871V7.94601H29.677V13.946ZM32.871 10.946V15.24H38.871V10.946H32.871ZM7.281 5.39702C5.992 10.314 5.359 15.627 5.359 21.32H11.359C11.359 16.069 11.942 11.274 13.085 6.91902L7.281 5.39702ZM5.359 21.32C5.359 27.013 5.992 32.326 7.281 37.243L13.085 35.721C11.942 31.366 11.359 26.571 11.359 21.32H5.359ZM9.826 33.503L5.076 34.073L5.79 40.031L10.54 39.461L9.826 33.503ZM8.335 36.292C7.141 31.731 6.533 26.745 6.533 21.32H0.533203C0.533203 27.193 1.1916 32.695 2.531 37.812L8.335 36.292ZM6.533 21.32C6.533 15.895 7.141 10.909 8.335 6.34802L2.531 4.82802C1.1916 9.94502 0.533203 15.447 0.533203 21.32H6.533ZM5.076 8.56702L9.826 9.13701L10.54 3.17902L5.79 2.60901L5.076 8.56702ZM26.345 25.369C24.782 24.47 23.093 23.944 21.317 23.944V29.944C21.871 29.944 22.539 30.102 23.357 30.571L26.345 25.369ZM21.317 23.944C19.746 23.944 18.035 24.199 16.645 25.161C15.056 26.262 14.365 27.942 14.365 29.68H20.365C20.365 29.585 20.381 29.647 20.315 29.784C20.242 29.937 20.134 30.044 20.061 30.095C20.007 30.132 20.044 30.089 20.263 30.038C20.481 29.988 20.822 29.944 21.317 29.944V23.944ZM14.365 29.68C14.365 31.397 14.964 33.138 16.524 34.338C17.935 35.423 19.699 35.72 21.317 35.72V29.72C20.841 29.72 20.525 29.673 20.333 29.624C20.145 29.576 20.125 29.538 20.182 29.582C20.255 29.638 20.326 29.729 20.365 29.817C20.395 29.888 20.365 29.866 20.365 29.68H14.365ZM21.317 35.72C22.911 35.72 24.766 35.376 26.136 34.005L21.894 29.763C22.021 29.636 22.109 29.622 22.035 29.645C21.947 29.672 21.726 29.72 21.317 29.72V35.72ZM26.183 33.958C27.526 32.553 27.851 30.66 27.851 29.034H21.851C21.851 29.495 21.801 29.763 21.763 29.89C21.729 30.008 21.727 29.936 21.847 29.81L26.183 33.958ZM27.851 29.034V27.97H21.851V29.034H27.851ZM70.033 13.188L71.327 15.895L74.106 14.567L72.705 11.824L70.033 13.188ZM65.739 15.24L63.077 16.623L64.414 19.198L67.033 17.947L65.739 15.24ZM62.205 8.66602L60.854 5.98701L58.074 7.39001L59.579 10.116L62.205 8.66602ZM66.499 6.50002L69.129 5.05702L67.735 2.51602L65.148 3.82101L66.499 6.50002ZM76.759 11.82L78.053 14.526L80.808 13.209L79.442 10.478L76.759 11.82ZM72.389 13.91L69.712 15.265L71.037 17.882L73.683 16.616L72.389 13.91ZM68.779 7.18402L67.428 4.50502L64.623 5.92001L66.166 8.65701L68.779 7.18402ZM73.149 4.98001L75.786 3.55002L74.398 0.990021L71.798 2.30101L73.149 4.98001ZM49.665 5.47401L49.753 2.47502L46.845 2.39001L46.67 5.29402L49.665 5.47401ZM54.833 5.62602L57.828 5.79202L57.999 2.71802L54.921 2.62701L54.833 5.62602ZM54.985 28.73L52.11 29.587L52.119 29.618L52.129 29.648L54.985 28.73ZM56.923 31.618L55.368 34.184L55.397 34.201L55.426 34.218L56.923 31.618ZM72.085 21.396L73.167 18.598L70.391 17.525L69.296 20.292L72.085 21.396ZM76.607 23.144L79.419 24.188L80.45 21.413L77.689 20.346L76.607 23.144ZM51.603 34.05L49.241 35.9L49.247 35.907L49.252 35.914L51.603 34.05ZM68.739 10.481L64.445 12.533L67.033 17.947L71.327 15.895L68.739 10.481ZM68.401 13.857C67.374 11.879 66.183 9.66502 64.831 7.21602L59.579 10.116C60.912 12.531 62.078 14.7 63.077 16.623L68.401 13.857ZM63.556 11.345L67.85 9.17902L65.148 3.82101L60.854 5.98701L63.556 11.345ZM63.869 7.94301C64.993 9.99101 66.157 12.194 67.361 14.552L72.705 11.824C71.477 9.41902 70.285 7.16302 69.129 5.05702L63.869 7.94301ZM75.465 9.11401L71.095 11.204L73.683 16.616L78.053 14.526L75.465 9.11401ZM75.066 12.555C73.979 10.407 72.754 8.12501 71.392 5.71101L66.166 8.65701C67.49 11.006 68.671 13.208 69.712 15.265L75.066 12.555ZM70.13 9.86302L74.5 7.65901L71.798 2.30101L67.428 4.50502L70.13 9.86302ZM70.512 6.41002C72.129 9.39202 73.313 11.637 74.076 13.162L79.442 10.478C78.634 8.86201 77.412 6.54702 75.786 3.55002L70.512 6.41002ZM49.577 8.47302L54.745 8.62502L54.921 2.62701L49.753 2.47502L49.577 8.47302ZM51.838 5.46002C51.506 11.436 51.339 17.104 51.339 22.46H57.339C57.339 17.227 57.502 11.672 57.828 5.79202L51.838 5.46002ZM51.339 22.46C51.339 25.291 51.555 27.725 52.11 29.587L57.86 27.873C57.554 26.847 57.339 25.101 57.339 22.46H51.339ZM52.129 29.648C52.694 31.408 53.661 33.149 55.368 34.184L58.478 29.052C58.513 29.074 58.188 28.89 57.841 27.812L52.129 29.648ZM55.426 34.218C56.919 35.077 58.732 35.34 60.533 35.34V29.34C59.192 29.34 58.599 29.121 58.42 29.018L55.426 34.218ZM60.533 35.34C67.262 35.34 71.854 30.132 74.874 22.5L69.296 20.292C66.54 27.252 63.431 29.34 60.533 29.34V35.34ZM71.003 24.194L75.525 25.942L77.689 20.346L73.167 18.598L71.003 24.194ZM73.795 22.1C72.167 26.483 70.194 29.498 68.013 31.4C65.892 33.25 63.446 34.166 60.533 34.166V40.166C64.866 40.166 68.721 38.745 71.958 35.921C75.135 33.149 77.576 29.153 79.419 24.188L73.795 22.1ZM60.533 34.166C56.574 34.166 54.754 33.195 53.954 32.186L49.252 35.914C51.746 39.06 55.878 40.166 60.533 40.166V34.166ZM53.965 32.2C52.993 30.96 52.133 28.021 52.133 22.46H46.133C46.133 28.147 46.919 32.935 49.241 35.9L53.965 32.2ZM52.133 22.46C52.133 17.104 52.308 11.502 52.66 5.65402L46.67 5.29402C46.312 11.251 46.133 16.974 46.133 22.46H52.133ZM112.783 10.908L109.897 10.091L109.165 12.673L111.65 13.686L112.783 10.908ZM118.901 15.734L116.423 17.425L116.428 17.432L116.432 17.439L118.901 15.734ZM117.913 32.796L120.15 34.795L120.155 34.789L120.16 34.783L117.913 32.796ZM108.831 37.166L105.931 37.934L106.609 40.494L109.234 40.139L108.831 37.166ZM107.653 32.72L107.278 29.744L103.875 30.173L104.753 33.488L107.653 32.72ZM114.075 29.756L111.852 27.741L114.075 29.756ZM114.987 18.622L112.476 20.264L114.987 18.622ZM111.301 15.544L112.555 12.819L109.575 11.447L108.475 14.538L111.301 15.544ZM103.359 30.63L105.621 32.601L105.628 32.592L103.359 30.63ZM89.869 33.024L87.461 34.813L87.475 34.832L87.49 34.851L89.869 33.024ZM89.527 18.508L92.204 19.862L92.21 19.85L89.527 18.508ZM94.087 13.036L95.892 15.432L97.496 14.224L96.99 12.28L94.087 13.036ZM92.453 6.38602L91.865 3.44402L88.822 4.05301L89.533 7.07301L92.453 6.38602ZM97.013 5.47401L99.931 4.77902L99.261 1.96501L96.425 2.53201L97.013 5.47401ZM98.305 10.756L95.398 11.496L96.228 14.758L99.373 13.559L98.305 10.756ZM108.299 9.73001L107.944 12.709L110.441 13.006L111.17 10.6L108.299 9.73001ZM109.819 4.06801L110.454 1.13602L107.589 0.515015L106.902 3.36502L109.819 4.06801ZM114.379 5.05602L117.294 5.76701L118.023 2.77602L115.014 2.12401L114.379 5.05602ZM106.741 14.404L109.558 15.437L110.922 11.717L106.971 11.413L106.741 14.404ZM99.559 15.354L98.474 12.557L95.935 13.543L96.671 16.165L99.559 15.354ZM102.295 24.17L99.454 25.133L101.576 31.394L104.891 25.674L102.295 24.17ZM99.065 28.654L101.276 30.681L102.514 29.331L101.879 27.613L99.065 28.654ZM95.493 17.976L98.369 17.124L96.937 12.289L93.372 15.855L95.493 17.976ZM93.289 29.566L90.71 31.099L90.735 31.141L90.761 31.181L93.289 29.566ZM111.65 13.686C113.76 14.546 115.313 15.798 116.423 17.425L121.379 14.043C119.551 11.364 117.024 9.39802 113.916 8.13002L111.65 13.686ZM116.432 17.439C117.528 19.026 118.105 20.879 118.105 23.106H124.105C124.105 19.76 123.212 16.698 121.37 14.029L116.432 17.439ZM118.105 23.106C118.105 26.625 117.192 29.083 115.666 30.809L120.16 34.783C122.89 31.696 124.105 27.693 124.105 23.106H118.105ZM115.676 30.797C114.13 32.527 111.823 33.733 108.428 34.193L109.234 40.139C113.692 39.535 117.44 37.828 120.15 34.795L115.676 30.797ZM111.731 36.398L110.553 31.952L104.753 33.488L105.931 37.934L111.731 36.398ZM108.028 35.696C111.337 35.279 114.22 34.064 116.298 31.771L111.852 27.741C110.991 28.691 109.593 29.452 107.278 29.744L108.028 35.696ZM116.298 31.771C118.397 29.454 119.279 26.444 119.279 23.106H113.279C113.279 25.392 112.692 26.815 111.852 27.741L116.298 31.771ZM119.279 23.106C119.279 20.889 118.699 18.817 117.498 16.98L112.476 20.264C112.998 21.062 113.279 21.979 113.279 23.106H119.279ZM117.498 16.98C116.293 15.137 114.602 13.761 112.555 12.819L110.047 18.269C111.192 18.796 111.958 19.472 112.476 20.264L117.498 16.98ZM108.475 14.538C106.153 21.059 103.659 25.697 101.09 28.668L105.628 32.592C108.886 28.825 111.686 23.405 114.127 16.55L108.475 14.538ZM101.097 28.659C98.407 31.747 96.338 32.646 94.885 32.646V38.646C98.904 38.646 102.484 36.201 105.621 32.601L101.097 28.659ZM94.885 32.646C93.919 32.646 93.089 32.291 92.248 31.197L87.49 34.851C89.334 37.253 91.848 38.646 94.885 38.646V32.646ZM92.277 31.235C91.479 30.16 90.893 28.406 90.893 25.614H84.893C84.893 29.155 85.625 32.341 87.461 34.813L92.277 31.235ZM90.893 25.614C90.893 23.466 91.342 21.566 92.204 19.862L86.85 17.154C85.533 19.756 84.893 22.594 84.893 25.614H90.893ZM92.21 19.85C93.092 18.087 94.311 16.623 95.892 15.432L92.282 10.64C89.962 12.387 88.141 14.572 86.844 17.166L92.21 19.85ZM96.99 12.28C96.517 10.461 95.978 8.26802 95.373 5.69902L89.533 7.07301C90.144 9.67201 90.695 11.913 91.184 13.792L96.99 12.28ZM93.041 9.32802L97.601 8.41602L96.425 2.53201L91.865 3.44402L93.041 9.32802ZM94.095 6.16902C94.603 8.30502 95.038 10.082 95.398 11.496L101.212 10.016C100.863 8.64302 100.436 6.89902 99.931 4.77902L94.095 6.16902ZM99.373 13.559C101.127 12.891 103.079 12.54 105.259 12.54V6.54001C102.423 6.54001 99.739 6.99902 97.237 7.95302L99.373 13.559ZM105.259 12.54C106.091 12.54 106.985 12.595 107.944 12.709L108.654 6.75102C107.485 6.61202 106.353 6.54001 105.259 6.54001V12.54ZM111.17 10.6C111.697 8.86202 112.218 6.91701 112.736 4.77101L106.902 3.36502C106.406 5.42402 105.914 7.25402 105.428 8.86002L111.17 10.6ZM109.184 7.00002L113.744 7.98802L115.014 2.12401L110.454 1.13602L109.184 7.00002ZM111.464 4.34502C111.226 5.32202 110.709 7.22202 109.897 10.091L115.669 11.725C116.479 8.86902 117.025 6.86701 117.294 5.76701L111.464 4.34502ZM106.971 11.413C106.523 11.378 105.935 11.366 105.259 11.366V17.366C105.9 17.366 106.301 17.379 106.511 17.395L106.971 11.413ZM105.259 11.366C102.842 11.366 100.566 11.745 98.474 12.557L100.644 18.151C101.946 17.646 103.471 17.366 105.259 17.366V11.366ZM96.671 16.165C97.496 19.107 98.424 22.096 99.454 25.133L105.136 23.207C104.139 20.265 103.243 17.377 102.447 14.543L96.671 16.165ZM104.891 25.674C106.569 22.777 108.121 19.355 109.558 15.437L103.924 13.371C102.575 17.053 101.162 20.142 99.699 22.666L104.891 25.674ZM101.879 27.613C100.531 23.97 99.362 20.474 98.369 17.124L92.617 18.828C93.651 22.318 94.863 25.94 96.251 29.695L101.879 27.613ZM93.372 15.855C90.741 18.486 89.453 21.814 89.453 25.614H95.453C95.453 23.283 96.192 21.52 97.614 20.097L93.372 15.855ZM89.453 25.614C89.453 27.576 89.764 29.508 90.71 31.099L95.868 28.033C95.699 27.749 95.453 27.046 95.453 25.614H89.453ZM90.761 31.181C91.689 32.633 93.213 33.934 95.379 33.934V27.934C95.462 27.934 95.56 27.946 95.661 27.977C95.762 28.008 95.84 28.048 95.891 28.082C95.988 28.145 95.946 28.152 95.817 27.951L90.761 31.181ZM95.379 33.934C97.795 33.934 99.791 32.302 101.276 30.681L96.854 26.627C96.271 27.263 95.824 27.625 95.52 27.813C95.216 28.001 95.188 27.934 95.379 27.934V33.934ZM161.613 15.126V18.126H164.613V15.126H161.613ZM150.099 15.126V12.126H147.099V15.126H150.099ZM150.099 23.942H147.099V25.89L148.879 26.683L150.099 23.942ZM162.221 31.846L164.524 33.769L166.499 31.404L164.082 29.493L162.221 31.846ZM159.143 35.532L157.273 37.878L159.566 39.706L161.446 37.455L159.143 35.532ZM150.099 28.996L151.62 26.41L147.237 23.832L147.1 28.915L150.099 28.996ZM147.895 35.228L145.813 33.068L145.793 33.087L145.774 33.107L147.895 35.228ZM134.405 35.152L136.381 32.894L136.37 32.885L136.36 32.877L134.405 35.152ZM134.443 24.056L132.586 21.7L132.578 21.706L132.569 21.713L134.443 24.056ZM145.045 22.346L144.552 25.305L148.045 25.887V22.346H145.045ZM145.045 4.71402V1.71402H142.045V4.71402H145.045ZM150.099 4.71402H153.099V1.71402H150.099V4.71402ZM150.099 10.794H147.099V13.794H150.099V10.794ZM161.613 10.794H164.613V7.79402H161.613V10.794ZM145.045 26.83H148.045V24.448L145.725 23.908L145.045 26.83ZM138.053 32.15L139.827 29.731L138.053 32.15ZM144.247 31.998L141.879 30.156L141.874 30.163L141.869 30.169L144.247 31.998ZM161.613 12.126H150.099V18.126H161.613V12.126ZM147.099 15.126V23.942H153.099V15.126H147.099ZM148.879 26.683C151.785 27.977 155.597 30.433 160.36 34.199L164.082 29.493C159.168 25.608 154.899 22.795 151.319 21.201L148.879 26.683ZM159.918 29.923L156.84 33.609L161.446 37.455L164.524 33.769L159.918 29.923ZM161.013 33.186C157.112 30.076 153.963 27.788 151.62 26.41L148.578 31.582C150.542 32.737 153.422 34.807 157.273 37.878L161.013 33.186ZM147.1 28.915C147.036 31.297 146.427 32.476 145.813 33.068L149.977 37.388C152.15 35.294 153.01 32.319 153.098 29.077L147.1 28.915ZM145.774 33.107C145.18 33.7 144.002 34.28 141.625 34.28V40.28C144.872 40.28 147.874 39.492 150.016 37.349L145.774 33.107ZM141.625 34.28C138.819 34.28 137.244 33.65 136.381 32.894L132.429 37.41C134.809 39.492 138.047 40.28 141.625 40.28V34.28ZM136.36 32.877C135.467 32.109 134.973 31.111 134.973 29.566H128.973C128.973 32.682 130.1 35.408 132.45 37.427L136.36 32.877ZM134.973 29.566C134.973 28 135.472 27.075 136.317 26.399L132.569 21.713C130.121 23.672 128.973 26.42 128.973 29.566H134.973ZM136.3 26.412C137.246 25.667 138.881 25.08 141.625 25.08V19.08C138.137 19.08 134.984 19.811 132.586 21.7L136.3 26.412ZM141.625 25.08C142.696 25.08 143.67 25.158 144.552 25.305L145.538 19.387C144.292 19.179 142.986 19.08 141.625 19.08V25.08ZM148.045 22.346V4.71402H142.045V22.346H148.045ZM145.045 7.71402H150.099V1.71402H145.045V7.71402ZM147.099 4.71402V10.794H153.099V4.71402H147.099ZM150.099 13.794H161.613V7.79402H150.099V13.794ZM158.613 10.794V15.126H164.613V10.794H158.613ZM145.725 23.908C144.399 23.6 143.03 23.45 141.625 23.45V29.45C142.602 29.45 143.513 29.554 144.365 29.752L145.725 23.908ZM141.625 23.45C139.819 23.45 137.941 23.731 136.436 24.727C134.713 25.866 133.913 27.643 133.913 29.566H139.913C139.913 29.427 139.938 29.451 139.886 29.553C139.862 29.601 139.831 29.646 139.797 29.683C139.765 29.719 139.743 29.733 139.746 29.731C139.758 29.723 139.883 29.646 140.209 29.574C140.534 29.503 140.996 29.45 141.625 29.45V23.45ZM133.913 29.566C133.913 31.434 134.565 33.312 136.279 34.569L139.827 29.731C139.84 29.741 139.866 29.762 139.893 29.796C139.92 29.83 139.936 29.859 139.943 29.875C139.956 29.905 139.913 29.828 139.913 29.566H133.913ZM136.279 34.569C137.808 35.69 139.777 35.986 141.625 35.986V29.986C140.975 29.986 140.512 29.929 140.2 29.856C139.886 29.783 139.8 29.711 139.827 29.731L136.279 34.569ZM141.625 35.986C143.322 35.986 145.313 35.533 146.625 33.827L141.869 30.169C141.926 30.095 141.991 30.035 142.052 29.991C142.112 29.948 142.152 29.932 142.154 29.932C142.154 29.932 142.144 29.935 142.123 29.941C142.102 29.946 142.07 29.953 142.026 29.96C141.936 29.974 141.805 29.986 141.625 29.986V35.986ZM146.615 33.84C147.785 32.336 148.045 30.324 148.045 28.54H142.045C142.045 29.201 141.989 29.655 141.922 29.946C141.854 30.244 141.798 30.26 141.879 30.156L146.615 33.84ZM148.045 28.54V26.83H142.045V28.54H148.045ZM175.027 17.52L174.282 14.614L171.422 15.347L172.109 18.218L175.027 17.52ZM184.261 15.696L184.685 18.666L184.695 18.664L184.705 18.663L184.261 15.696ZM201.171 17.254L199.297 19.597L199.314 19.61L199.331 19.624L201.171 17.254ZM198.663 32.53L197.007 30.028L198.663 32.53ZM182.779 36.9L179.844 37.522L180.388 40.091L183.007 39.891L182.779 36.9ZM181.829 32.416L181.532 29.431L178.2 29.762L178.894 33.038L181.829 32.416ZM194.787 29.186L193.324 26.567L193.314 26.573L194.787 29.186ZM176.091 21.966L173.173 22.664L173.866 25.557L176.764 24.89L176.091 21.966ZM180.347 9.80602L177.371 9.42502L176.993 12.372L179.937 12.778L180.347 9.80602ZM180.917 5.36002L181.327 2.38802L178.327 1.97401L177.941 4.97902L180.917 5.36002ZM198.625 6.61401H201.625V3.61401H198.625V6.61401ZM198.625 11.174V14.174H201.625V11.174H198.625ZM175.772 20.426C178.625 19.695 181.596 19.107 184.685 18.666L183.837 12.726C180.542 13.197 177.357 13.825 174.282 14.614L175.772 20.426ZM184.705 18.663C187.837 18.194 190.389 17.974 192.393 17.974V11.974C189.989 11.974 187.119 12.235 183.817 12.729L184.705 18.663ZM192.393 17.974C196.058 17.974 198.171 18.696 199.297 19.597L203.045 14.911C200.371 12.772 196.632 11.974 192.393 11.974V17.974ZM199.331 19.624C200.509 20.538 201.059 21.644 201.059 23.22H207.059C207.059 19.831 205.684 16.959 203.011 14.884L199.331 19.624ZM201.059 23.22C201.059 25.897 199.891 28.119 197.007 30.028L200.319 35.032C204.63 32.178 207.059 28.194 207.059 23.22H201.059ZM197.007 30.028C194.024 32.003 189.318 33.394 182.551 33.909L183.007 39.891C190.224 39.342 196.107 37.82 200.319 35.032L197.007 30.028ZM185.714 36.278L184.764 31.794L178.894 33.038L179.844 37.522L185.714 36.278ZM182.126 35.401C188.103 34.806 192.923 33.68 196.26 31.799L193.314 26.573C191.077 27.833 187.259 28.86 181.532 29.431L182.126 35.401ZM196.25 31.805C199.542 29.966 202.005 27.25 202.005 23.486H196.005C196.005 24.181 195.656 25.264 193.324 26.567L196.25 31.805ZM202.005 23.486C202.005 21.098 200.864 19.119 198.796 17.924C196.977 16.874 194.636 16.534 192.165 16.534V22.534C194.254 22.534 195.333 22.853 195.794 23.12C195.979 23.227 195.995 23.285 195.979 23.256C195.963 23.228 196.005 23.271 196.005 23.486H202.005ZM192.165 16.534C188.14 16.534 182.512 17.409 175.418 19.042L176.764 24.89C183.755 23.28 188.843 22.534 192.165 22.534V16.534ZM179.009 21.268L177.945 16.822L172.109 18.218L173.173 22.664L179.009 21.268ZM183.323 10.187L183.893 5.74101L177.941 4.97902L177.371 9.42502L183.323 10.187ZM180.507 8.33202C186.689 9.18502 192.729 9.61401 198.625 9.61401V3.61401C193.02 3.61401 187.254 3.20702 181.327 2.38802L180.507 8.33202ZM195.625 6.61401V11.174H201.625V6.61401H195.625ZM198.625 8.17401C193.212 8.17401 187.259 7.73101 180.757 6.83401L179.937 12.778C186.659 13.705 192.891 14.174 198.625 14.174V8.17401Z" fill="#263024"/>
<path d="M35.8712 15.24H29.6772V25.918C31.1972 27.109 33.3252 29.135 36.0612 31.998L32.8692 35.19C31.7802 33.999 30.6272 32.821 29.4112 31.656C28.6002 35.228 25.9782 37.014 21.5452 37.014C18.7332 37.014 16.5542 36.368 15.0092 35.076C13.4642 33.809 12.6912 32.011 12.6912 29.68C12.6912 27.476 13.4512 25.741 14.9712 24.474C16.5162 23.207 18.7082 22.574 21.5452 22.574C22.7102 22.574 23.8122 22.751 24.8512 23.106V15.24H13.9452V10.946H24.8512V5.09399H29.6772V10.946H35.8712V15.24ZM10.1832 6.158C8.9672 10.794 8.35921 15.848 8.35921 21.32C8.35921 26.792 8.9672 31.846 10.1832 36.482L5.4332 37.052C4.1662 32.213 3.5332 26.969 3.5332 21.32C3.5332 15.671 4.1662 10.427 5.4332 5.588L10.1832 6.158ZM24.8512 27.97C23.6602 27.286 22.4822 26.944 21.3172 26.944C18.6822 26.944 17.3652 27.856 17.3652 29.68C17.3652 31.707 18.6822 32.72 21.3172 32.72C22.5582 32.72 23.4582 32.441 24.0152 31.884C24.5722 31.301 24.8512 30.351 24.8512 29.034V27.97ZM70.0332 13.188L65.7392 15.24C64.7262 13.289 63.5482 11.098 62.2052 8.666L66.4992 6.5C67.6392 8.577 68.8172 10.807 70.0332 13.188ZM76.7592 11.82L72.3892 13.91C71.3252 11.807 70.1222 9.56501 68.7792 7.18401L73.1492 4.98C74.7702 7.969 75.9742 10.249 76.7592 11.82ZM49.6652 5.474L54.8332 5.62601C54.5042 11.554 54.3392 17.165 54.3392 22.46C54.3392 25.196 54.5542 27.286 54.9852 28.73C55.4412 30.149 56.0872 31.111 56.9232 31.618C57.7592 32.099 58.9622 32.34 60.5332 32.34C65.3462 32.34 69.1972 28.692 72.0852 21.396L76.6072 23.144C73.1362 32.492 67.7782 37.166 60.5332 37.166C56.2262 37.166 53.2502 36.127 51.6032 34.05C49.9562 31.947 49.1332 28.084 49.1332 22.46C49.1332 17.039 49.3102 11.377 49.6652 5.474ZM112.783 10.908C115.392 11.972 117.432 13.581 118.901 15.734C120.37 17.862 121.105 20.319 121.105 23.106C121.105 27.159 120.041 30.389 117.913 32.796C115.785 35.177 112.758 36.634 108.831 37.166L107.653 32.72C110.465 32.365 112.606 31.377 114.075 29.756C115.544 28.135 116.279 25.918 116.279 23.106C116.279 21.434 115.848 19.939 114.987 18.622C114.126 17.305 112.897 16.279 111.301 15.544C108.92 22.232 106.272 27.261 103.359 30.63C100.446 33.974 97.6212 35.646 94.8852 35.646C92.8842 35.646 91.2122 34.772 89.8692 33.024C88.5522 31.251 87.8932 28.781 87.8932 25.614C87.8932 23.03 88.4382 20.661 89.5272 18.508C90.6162 16.329 92.1362 14.505 94.0872 13.036C93.6062 11.187 93.0612 8.97 92.4532 6.386L97.0132 5.474C97.5202 7.602 97.9502 9.363 98.3052 10.756C100.433 9.945 102.751 9.53999 105.259 9.53999C106.222 9.53999 107.235 9.603 108.299 9.73C108.806 8.058 109.312 6.17099 109.819 4.06799L114.379 5.056C114.126 6.095 113.594 8.045 112.783 10.908ZM106.741 14.404C106.412 14.379 105.918 14.366 105.259 14.366C103.156 14.366 101.256 14.695 99.5592 15.354C100.37 18.242 101.282 21.181 102.295 24.17C103.866 21.459 105.348 18.204 106.741 14.404ZM99.0652 28.654C97.6972 24.955 96.5062 21.396 95.4932 17.976C93.4662 20.003 92.4532 22.549 92.4532 25.614C92.4532 27.311 92.7322 28.629 93.2892 29.566C93.8722 30.478 94.5682 30.934 95.3792 30.934C96.4432 30.934 97.6722 30.174 99.0652 28.654ZM161.613 15.126H150.099V23.942C153.342 25.386 157.382 28.021 162.221 31.846L159.143 35.532C155.267 32.441 152.252 30.263 150.099 28.996C150.023 31.808 149.288 33.885 147.895 35.228C146.527 36.596 144.437 37.28 141.625 37.28C138.433 37.28 136.026 36.571 134.405 35.152C132.784 33.759 131.973 31.897 131.973 29.566C131.973 27.21 132.796 25.373 134.443 24.056C136.115 22.739 138.509 22.08 141.625 22.08C142.841 22.08 143.981 22.169 145.045 22.346V4.714H150.099V10.794H161.613V15.126ZM145.045 26.83C143.956 26.577 142.816 26.45 141.625 26.45C138.484 26.45 136.913 27.489 136.913 29.566C136.913 30.731 137.293 31.593 138.053 32.15C138.813 32.707 140.004 32.986 141.625 32.986C142.866 32.986 143.74 32.657 144.247 31.998C144.779 31.314 145.045 30.161 145.045 28.54V26.83ZM175.027 17.52C177.991 16.76 181.069 16.152 184.261 15.696C187.478 15.215 190.189 14.974 192.393 14.974C196.345 14.974 199.271 15.734 201.171 17.254C203.096 18.749 204.059 20.737 204.059 23.22C204.059 27.045 202.26 30.149 198.663 32.53C195.066 34.911 189.771 36.368 182.779 36.9L181.829 32.416C187.681 31.833 192 30.757 194.787 29.186C197.599 27.615 199.005 25.715 199.005 23.486C199.005 20.851 196.725 19.534 192.165 19.534C188.492 19.534 183.134 20.345 176.091 21.966L175.027 17.52ZM180.347 9.806L180.917 5.36C186.972 6.196 192.874 6.614 198.625 6.614V11.174C193.052 11.174 186.959 10.718 180.347 9.806Z" fill="white"/>
</svg>
