<svg width="219" height="40" viewBox="0 0 219 40" fill="none" xmlns="http://www.w3.org/2000/svg">
<path d="M3 12H0V15H3V12ZM3 8V5H0V8H3ZM31 8H34V5H31V8ZM31 12V15H34V12H31ZM19 12V9H16V12H19ZM19 36V39H22V36H19ZM15 36H12V39H15V36ZM15 12H18V9H15V12ZM6 12V8H0V12H6ZM3 11H31V5H3V11ZM28 8V12H34V8H28ZM31 9H19V15H31V9ZM16 12V36H22V12H16ZM19 33H15V39H19V33ZM18 36V12H12V36H18ZM15 9H3V15H15V9ZM27 36H24V39H27V36ZM27 28V25H24V28H27ZM31 28H34V25H31V28ZM31 36V39H34V36H31ZM31 28H28V31H31V28ZM31 20V17H28V20H31ZM35 20H38V17H35V20ZM35 24H32V27H35V24ZM47 24V27H50V24H47ZM47 20H50V17H47V20ZM43 20H40V23H43V20ZM43 12V9H40V12H43ZM47 12H50V9H47V12ZM47 20H44V23H47V20ZM51 20H54V17H51V20ZM51 28V31H54V28H51ZM35 20H32V23H35V20ZM35 12V9H32V12H35ZM39 12H42V9H39V12ZM39 20V23H42V20H39ZM39 12H36V15H39V12ZM39 8V5H36V8H39ZM43 8H46V5H43V8ZM43 12V15H46V12H43ZM51 28V25H48V28H51ZM55 28H58V25H55V28ZM55 36V39H58V36H55ZM51 36H48V39H51V36ZM30 36V28H24V36H30ZM27 31H31V25H27V31ZM28 28V36H34V28H28ZM31 33H27V39H31V33ZM34 28V20H28V28H34ZM31 23H35V17H31V23ZM32 20V24H38V20H32ZM35 27H47V21H35V27ZM50 24V20H44V24H50ZM47 17H43V23H47V17ZM46 20V12H40V20H46ZM43 15H47V9H43V15ZM44 12V20H50V12H44ZM47 23H51V17H47V23ZM48 20V28H54V20H48ZM51 25H31V31H51V25ZM38 20V12H32V20H38ZM35 15H39V9H35V15ZM36 12V20H42V12H36ZM39 17H35V23H39V17ZM42 12V8H36V12H42ZM39 11H43V5H39V11ZM40 8V12H46V8H40ZM43 9H39V15H43V9ZM51 31H55V25H51V31ZM52 28V36H58V28H52ZM55 33H51V39H55V33ZM54 36V28H48V36H54ZM59.16 32H56.16V35H59.16V32ZM59.16 20V17H56.16V20H59.16ZM63.16 20H66.16V17H63.16V20ZM63.16 32V35H66.16V32H63.16ZM63.16 32V29H60.16V32H63.16ZM75.16 32H78.16V29H75.16V32ZM75.16 36V39H78.16V36H75.16ZM63.16 36H60.16V39H63.16V36ZM63.16 20H60.16V23H63.16V20ZM63.16 16V13H60.16V16H63.16ZM75.16 16H78.16V13H75.16V16ZM75.16 20V23H78.16V20H75.16ZM75.16 32H72.16V35H75.16V32ZM75.16 20V17H72.16V20H75.16ZM79.16 20H82.16V17H79.16V20ZM79.16 32V35H82.16V32H79.16ZM62.16 32V20H56.16V32H62.16ZM59.16 23H63.16V17H59.16V23ZM60.16 20V32H66.16V20H60.16ZM63.16 29H59.16V35H63.16V29ZM63.16 35H75.16V29H63.16V35ZM72.16 32V36H78.16V32H72.16ZM75.16 33H63.16V39H75.16V33ZM66.16 36V32H60.16V36H66.16ZM66.16 20V16H60.16V20H66.16ZM63.16 19H75.16V13H63.16V19ZM72.16 16V20H78.16V16H72.16ZM75.16 17H63.16V23H75.16V17ZM78.16 32V20H72.16V32H78.16ZM75.16 23H79.16V17H75.16V23ZM76.16 20V32H82.16V20H76.16ZM79.16 29H75.16V35H79.16V29ZM83.16 32H80.16V35H83.16V32ZM83.16 28V25H80.16V28H83.16ZM87.16 28H90.16V25H87.16V28ZM87.16 32V35H90.16V32H87.16ZM83.16 20H80.16V23H83.16V20ZM83.16 12V9H80.16V12H83.16ZM87.16 12H90.16V9H87.16V12ZM87.16 20V23H90.16V20H87.16ZM87.16 32V29H84.16V32H87.16ZM103.16 32H106.16V29H103.16V32ZM103.16 36V39H106.16V36H103.16ZM87.16 36H84.16V39H87.16V36ZM87.16 24H84.16V27H87.16V24ZM87.16 20V17H84.16V20H87.16ZM103.16 20H106.16V17H103.16V20ZM103.16 24V27H106.16V24H103.16ZM87.16 12H84.16V15H87.16V12ZM87.16 8V5H84.16V8H87.16ZM103.16 8H106.16V5H103.16V8ZM103.16 12V15H106.16V12H103.16ZM103.16 32H100.16V35H103.16V32ZM103.16 24V21H100.16V24H103.16ZM107.16 24H110.16V21H107.16V24ZM107.16 32V35H110.16V32H107.16ZM103.16 16H100.16V19H103.16V16ZM103.16 12V9H100.16V12H103.16ZM107.16 12H110.16V9H107.16V12ZM107.16 16V19H110.16V16H107.16ZM86.16 32V28H80.16V32H86.16ZM83.16 31H87.16V25H83.16V31ZM84.16 28V32H90.16V28H84.16ZM87.16 29H83.16V35H87.16V29ZM86.16 20V12H80.16V20H86.16ZM83.16 15H87.16V9H83.16V15ZM84.16 12V20H90.16V12H84.16ZM87.16 17H83.16V23H87.16V17ZM87.16 35H103.16V29H87.16V35ZM100.16 32V36H106.16V32H100.16ZM103.16 33H87.16V39H103.16V33ZM90.16 36V32H84.16V36H90.16ZM90.16 24V20H84.16V24H90.16ZM87.16 23H103.16V17H87.16V23ZM100.16 20V24H106.16V20H100.16ZM103.16 21H87.16V27H103.16V21ZM90.16 12V8H84.16V12H90.16ZM87.16 11H103.16V5H87.16V11ZM100.16 8V12H106.16V8H100.16ZM103.16 9H87.16V15H103.16V9ZM106.16 32V24H100.16V32H106.16ZM103.16 27H107.16V21H103.16V27ZM104.16 24V32H110.16V24H104.16ZM107.16 29H103.16V35H107.16V29ZM106.16 16V12H100.16V16H106.16ZM103.16 15H107.16V9H103.16V15ZM104.16 12V16H110.16V12H104.16ZM107.16 13H103.16V19H107.16V13ZM111.32 36H108.32V39H111.32V36ZM111.32 8V5H108.32V8H111.32ZM115.32 8H118.32V5H115.32V8ZM115.32 24H112.32V27H115.32V24ZM119.32 24H122.32V21H119.32V24ZM119.32 28V31H122.32V28H119.32ZM115.32 28V25H112.32V28H115.32ZM115.32 36V39H118.32V36H115.32ZM119.32 24H116.32V27H119.32V24ZM119.32 20V17H116.32V20H119.32ZM123.32 20H126.32V17H123.32V20ZM123.32 24V27H126.32V24H123.32ZM123.32 28H120.32V31H123.32V28ZM123.32 24V21H120.32V24H123.32ZM127.32 24H130.32V21H127.32V24ZM127.32 28V31H130.32V28H127.32ZM123.32 20H120.32V23H123.32V20ZM123.32 16V13H120.32V16H123.32ZM127.32 16H130.32V13H127.32V16ZM127.32 20V23H130.32V20H127.32ZM127.32 32H124.32V35H127.32V32ZM127.32 28V25H124.32V28H127.32ZM131.32 28H134.32V25H131.32V28ZM131.32 32V35H134.32V32H131.32ZM127.32 16H124.32V19H127.32V16ZM127.32 12V9H124.32V12H127.32ZM131.32 12H134.32V9H131.32V12ZM131.32 16V19H134.32V16H131.32ZM131.32 32V29H128.32V32H131.32ZM135.32 32H138.32V29H135.32V32ZM135.32 36V39H138.32V36H135.32ZM131.32 36H128.32V39H131.32V36ZM131.32 12H128.32V15H131.32V12ZM131.32 8V5H128.32V8H131.32ZM135.32 8H138.32V5H135.32V8ZM135.32 12V15H138.32V12H135.32ZM114.32 36V8H108.32V36H114.32ZM111.32 11H115.32V5H111.32V11ZM112.32 8V24H118.32V8H112.32ZM115.32 27H119.32V21H115.32V27ZM116.32 24V28H122.32V24H116.32ZM119.32 25H115.32V31H119.32V25ZM112.32 28V36H118.32V28H112.32ZM115.32 33H111.32V39H115.32V33ZM122.32 24V20H116.32V24H122.32ZM119.32 23H123.32V17H119.32V23ZM120.32 20V24H126.32V20H120.32ZM123.32 21H119.32V27H123.32V21ZM126.32 28V24H120.32V28H126.32ZM123.32 27H127.32V21H123.32V27ZM124.32 24V28H130.32V24H124.32ZM127.32 25H123.32V31H127.32V25ZM126.32 20V16H120.32V20H126.32ZM123.32 19H127.32V13H123.32V19ZM124.32 16V20H130.32V16H124.32ZM127.32 17H123.32V23H127.32V17ZM130.32 32V28H124.32V32H130.32ZM127.32 31H131.32V25H127.32V31ZM128.32 28V32H134.32V28H128.32ZM131.32 29H127.32V35H131.32V29ZM130.32 16V12H124.32V16H130.32ZM127.32 15H131.32V9H127.32V15ZM128.32 12V16H134.32V12H128.32ZM131.32 13H127.32V19H131.32V13ZM131.32 35H135.32V29H131.32V35ZM132.32 32V36H138.32V32H132.32ZM135.32 33H131.32V39H135.32V33ZM134.32 36V32H128.32V36H134.32ZM134.32 12V8H128.32V12H134.32ZM131.32 11H135.32V5H131.32V11ZM132.32 8V12H138.32V8H132.32ZM135.32 9H131.32V15H135.32V9ZM144.39 32H141.39V35H144.39V32ZM144.39 27.25V24.25H141.39V27.25H144.39ZM149.14 27.25H152.14V24.25H149.14V27.25ZM149.14 32V35H152.14V32H149.14ZM149.14 32V29H146.14V32H149.14ZM172.89 32H175.89V29H172.89V32ZM172.89 36.75V39.75H175.89V36.75H172.89ZM149.14 36.75H146.14V39.75H149.14V36.75ZM149.14 27.25H146.14V30.25H149.14V27.25ZM149.14 22.5V19.5H146.14V22.5H149.14ZM153.89 22.5V25.5H156.89V22.5H153.89ZM153.89 17.75V14.75H150.89V17.75H153.89ZM163.39 17.75H166.39V14.75H163.39V17.75ZM163.39 22.5V25.5H166.39V22.5H163.39ZM153.89 22.5V19.5H150.89V22.5H153.89ZM153.89 27.25V30.25H156.89V27.25H153.89ZM149.14 17.75H146.14V20.75H149.14V17.75ZM149.14 3.5V0.5H146.14V3.5H149.14ZM153.89 3.5H156.89V0.5H153.89V3.5ZM153.89 17.75V20.75H156.89V17.75H153.89ZM163.39 17.75H160.39V20.75H163.39V17.75ZM163.39 13V10H160.39V13H163.39ZM168.14 13H171.14V10H168.14V13ZM168.14 17.75V20.75H171.14V17.75H168.14ZM147.39 32V27.25H141.39V32H147.39ZM144.39 30.25H149.14V24.25H144.39V30.25ZM146.14 27.25V32H152.14V27.25H146.14ZM149.14 29H144.39V35H149.14V29ZM149.14 35H172.89V29H149.14V35ZM169.89 32V36.75H175.89V32H169.89ZM172.89 33.75H149.14V39.75H172.89V33.75ZM152.14 36.75V32H146.14V36.75H152.14ZM152.14 27.25V22.5H146.14V27.25H152.14ZM149.14 25.5H153.89V19.5H149.14V25.5ZM156.89 22.5V17.75H150.89V22.5H156.89ZM153.89 20.75H163.39V14.75H153.89V20.75ZM160.39 17.75V22.5H166.39V17.75H160.39ZM163.39 19.5H153.89V25.5H163.39V19.5ZM150.89 22.5V27.25H156.89V22.5H150.89ZM153.89 24.25H149.14V30.25H153.89V24.25ZM152.14 17.75V3.5H146.14V17.75H152.14ZM149.14 6.5H153.89V0.5H149.14V6.5ZM150.89 3.5V17.75H156.89V3.5H150.89ZM153.89 14.75H149.14V20.75H153.89V14.75ZM166.39 17.75V13H160.39V17.75H166.39ZM163.39 16H168.14V10H163.39V16ZM165.14 13V17.75H171.14V13H165.14ZM168.14 14.75H163.39V20.75H168.14V14.75ZM182.2 36.75H179.2V39.75H182.2V36.75ZM182.2 3.5V0.5H179.2V3.5H182.2ZM186.95 3.5H189.95V0.5H186.95V3.5ZM186.95 36.75V39.75H189.95V36.75H186.95ZM191.7 32H188.7V35H191.7V32ZM191.7 27.25V24.25H188.7V27.25H191.7ZM196.45 27.25H199.45V24.25H196.45V27.25ZM196.45 32V35H199.45V32H196.45ZM191.7 17.75H188.7V20.75H191.7V17.75ZM191.7 13V10H188.7V13H191.7ZM205.95 13V16H208.95V13H205.95ZM205.95 3.5V0.5H202.95V3.5H205.95ZM210.7 3.5H213.7V0.5H210.7V3.5ZM210.7 13H207.7V16H210.7V13ZM215.45 13H218.45V10H215.45V13ZM215.45 17.75V20.75H218.45V17.75H215.45ZM210.7 17.75V14.75H207.7V17.75H210.7ZM210.7 32V35H213.7V32H210.7ZM205.95 32H202.95V35H205.95V32ZM205.95 27.25H208.95V24.25H205.95V27.25ZM196.45 27.25H193.45V30.25H196.45V27.25ZM196.45 22.5V19.5H193.45V22.5H196.45ZM205.95 22.5V25.5H208.95V22.5H205.95ZM205.95 17.75H208.95V14.75H205.95V17.75ZM196.45 32V29H193.45V32H196.45ZM205.95 32H208.95V29H205.95V32ZM205.95 36.75V39.75H208.95V36.75H205.95ZM196.45 36.75H193.45V39.75H196.45V36.75ZM210.7 32V29H207.7V32H210.7ZM215.45 32H218.45V29H215.45V32ZM215.45 36.75V39.75H218.45V36.75H215.45ZM210.7 36.75H207.7V39.75H210.7V36.75ZM185.2 36.75V3.5H179.2V36.75H185.2ZM182.2 6.5H186.95V0.5H182.2V6.5ZM183.95 3.5V36.75H189.95V3.5H183.95ZM186.95 33.75H182.2V39.75H186.95V33.75ZM194.7 32V27.25H188.7V32H194.7ZM191.7 30.25H196.45V24.25H191.7V30.25ZM193.45 27.25V32H199.45V27.25H193.45ZM196.45 29H191.7V35H196.45V29ZM194.7 17.75V13H188.7V17.75H194.7ZM191.7 16H205.95V10H191.7V16ZM208.95 13V3.5H202.95V13H208.95ZM205.95 6.5H210.7V0.5H205.95V6.5ZM207.7 3.5V13H213.7V3.5H207.7ZM210.7 16H215.45V10H210.7V16ZM212.45 13V17.75H218.45V13H212.45ZM215.45 14.75H210.7V20.75H215.45V14.75ZM207.7 17.75V32H213.7V17.75H207.7ZM210.7 29H205.95V35H210.7V29ZM208.95 32V27.25H202.95V32H208.95ZM205.95 24.25H196.45V30.25H205.95V24.25ZM199.45 27.25V22.5H193.45V27.25H199.45ZM196.45 25.5H205.95V19.5H196.45V25.5ZM208.95 22.5V17.75H202.95V22.5H208.95ZM205.95 14.75H191.7V20.75H205.95V14.75ZM196.45 35H205.95V29H196.45V35ZM202.95 32V36.75H208.95V32H202.95ZM205.95 33.75H196.45V39.75H205.95V33.75ZM199.45 36.75V32H193.45V36.75H199.45ZM210.7 35H215.45V29H210.7V35ZM212.45 32V36.75H218.45V32H212.45ZM215.45 33.75H210.7V39.75H215.45V33.75ZM213.7 36.75V32H207.7V36.75H213.7Z" fill="#263024"/>
<path d="M3 12V8H31V12H19V36H15V12H3ZM27 36V28H31V36H27ZM31 28V20H35V24H47V20H43V12H47V20H51V28H31ZM35 20V12H39V20H35ZM39 12V8H43V12H39ZM51 28H55V36H51V28ZM59.16 32V20H63.16V32H59.16ZM63.16 32H75.16V36H63.16V32ZM63.16 20V16H75.16V20H63.16ZM75.16 32V20H79.16V32H75.16ZM83.16 32V28H87.16V32H83.16ZM83.16 20V12H87.16V20H83.16ZM87.16 32H103.16V36H87.16V32ZM87.16 24V20H103.16V24H87.16ZM87.16 12V8H103.16V12H87.16ZM103.16 32V24H107.16V32H103.16ZM103.16 16V12H107.16V16H103.16ZM111.32 36V8H115.32V24H119.32V28H115.32V36H111.32ZM119.32 24V20H123.32V24H119.32ZM123.32 28V24H127.32V28H123.32ZM123.32 20V16H127.32V20H123.32ZM127.32 32V28H131.32V32H127.32ZM127.32 16V12H131.32V16H127.32ZM131.32 32H135.32V36H131.32V32ZM131.32 12V8H135.32V12H131.32ZM144.39 32V27.25H149.14V32H144.39ZM149.14 32H172.89V36.75H149.14V32ZM149.14 27.25V22.5H153.89V17.75H163.39V22.5H153.89V27.25H149.14ZM149.14 17.75V3.5H153.89V17.75H149.14ZM163.39 17.75V13H168.14V17.75H163.39ZM182.2 36.75V3.5H186.95V36.75H182.2ZM191.7 32V27.25H196.45V32H191.7ZM191.7 17.75V13H205.95V3.5H210.7V13H215.45V17.75H210.7V32H205.95V27.25H196.45V22.5H205.95V17.75H191.7ZM196.45 32H205.95V36.75H196.45V32ZM210.7 32H215.45V36.75H210.7V32Z" fill="white"/>
</svg>
