<svg width="196" height="40" viewBox="0 0 196 40" fill="none" xmlns="http://www.w3.org/2000/svg">
<path d="M3.75 32H0.75V35H3.75V32ZM3.75 27.25V24.25H0.75V27.25H3.75ZM8.5 27.25H11.5V24.25H8.5V27.25ZM8.5 32V35H11.5V32H8.5ZM8.5 32V29H5.5V32H8.5ZM32.25 32H35.25V29H32.25V32ZM32.25 36.75V39.75H35.25V36.75H32.25ZM8.5 36.75H5.5V39.75H8.5V36.75ZM8.5 27.25H5.5V30.25H8.5V27.25ZM8.5 22.5V19.5H5.5V22.5H8.5ZM13.25 22.5V25.5H16.25V22.5H13.25ZM13.25 17.75V14.75H10.25V17.75H13.25ZM22.75 17.75H25.75V14.75H22.75V17.75ZM22.75 22.5V25.5H25.75V22.5H22.75ZM13.25 22.5V19.5H10.25V22.5H13.25ZM13.25 27.25V30.25H16.25V27.25H13.25ZM8.5 17.75H5.5V20.75H8.5V17.75ZM8.5 3.5V0.5H5.5V3.5H8.5ZM13.25 3.5H16.25V0.5H13.25V3.5ZM13.25 17.75V20.75H16.25V17.75H13.25ZM22.75 17.75H19.75V20.75H22.75V17.75ZM22.75 13V10H19.75V13H22.75ZM27.5 13H30.5V10H27.5V13ZM27.5 17.75V20.75H30.5V17.75H27.5ZM6.75 32V27.25H0.75V32H6.75ZM3.75 30.25H8.5V24.25H3.75V30.25ZM5.5 27.25V32H11.5V27.25H5.5ZM8.5 29H3.75V35H8.5V29ZM8.5 35H32.25V29H8.5V35ZM29.25 32V36.75H35.25V32H29.25ZM32.25 33.75H8.5V39.75H32.25V33.75ZM11.5 36.75V32H5.5V36.75H11.5ZM11.5 27.25V22.5H5.5V27.25H11.5ZM8.5 25.5H13.25V19.5H8.5V25.5ZM16.25 22.5V17.75H10.25V22.5H16.25ZM13.25 20.75H22.75V14.75H13.25V20.75ZM19.75 17.75V22.5H25.75V17.75H19.75ZM22.75 19.5H13.25V25.5H22.75V19.5ZM10.25 22.5V27.25H16.25V22.5H10.25ZM13.25 24.25H8.5V30.25H13.25V24.25ZM11.5 17.75V3.5H5.5V17.75H11.5ZM8.5 6.5H13.25V0.5H8.5V6.5ZM10.25 3.5V17.75H16.25V3.5H10.25ZM13.25 14.75H8.5V20.75H13.25V14.75ZM25.75 17.75V13H19.75V17.75H25.75ZM22.75 16H27.5V10H22.75V16ZM24.5 13V17.75H30.5V13H24.5ZM27.5 14.75H22.75V20.75H27.5V14.75ZM46.31 22.5H43.31V25.5H46.31V22.5ZM46.31 17.75V14.75H43.31V17.75H46.31ZM51.06 17.75H54.06V14.75H51.06V17.75ZM51.06 22.5V25.5H54.06V22.5H51.06ZM51.06 27.25H48.06V30.25H51.06V27.25ZM51.06 22.5V19.5H48.06V22.5H51.06ZM60.56 22.5H63.56V19.5H60.56V22.5ZM60.56 27.25V30.25H63.56V27.25H60.56ZM51.06 17.75H48.06V20.75H51.06V17.75ZM51.06 13V10H48.06V13H51.06ZM60.56 13H63.56V10H60.56V13ZM60.56 17.75V20.75H63.56V17.75H60.56ZM60.56 32H57.56V35H60.56V32ZM60.56 27.25V24.25H57.56V27.25H60.56ZM65.31 27.25H68.31V24.25H65.31V27.25ZM65.31 32V35H68.31V32H65.31ZM60.56 13H57.56V16H60.56V13ZM60.56 8.25V5.25H57.56V8.25H60.56ZM65.31 8.25H68.31V5.25H65.31V8.25ZM65.31 13V16H68.31V13H65.31ZM65.31 32V29H62.31V32H65.31ZM70.06 32H73.06V29H70.06V32ZM70.06 36.75V39.75H73.06V36.75H70.06ZM65.31 36.75H62.31V39.75H65.31V36.75ZM65.31 8.25H62.31V11.25H65.31V8.25ZM65.31 3.5V0.5H62.31V3.5H65.31ZM70.06 3.5H73.06V0.5H70.06V3.5ZM70.06 8.25V11.25H73.06V8.25H70.06ZM49.31 22.5V17.75H43.31V22.5H49.31ZM46.31 20.75H51.06V14.75H46.31V20.75ZM48.06 17.75V22.5H54.06V17.75H48.06ZM51.06 19.5H46.31V25.5H51.06V19.5ZM54.06 27.25V22.5H48.06V27.25H54.06ZM51.06 25.5H60.56V19.5H51.06V25.5ZM57.56 22.5V27.25H63.56V22.5H57.56ZM60.56 24.25H51.06V30.25H60.56V24.25ZM54.06 17.75V13H48.06V17.75H54.06ZM51.06 16H60.56V10H51.06V16ZM57.56 13V17.75H63.56V13H57.56ZM60.56 14.75H51.06V20.75H60.56V14.75ZM63.56 32V27.25H57.56V32H63.56ZM60.56 30.25H65.31V24.25H60.56V30.25ZM62.31 27.25V32H68.31V27.25H62.31ZM65.31 29H60.56V35H65.31V29ZM63.56 13V8.25H57.56V13H63.56ZM60.56 11.25H65.31V5.25H60.56V11.25ZM62.31 8.25V13H68.31V8.25H62.31ZM65.31 10H60.56V16H65.31V10ZM65.31 35H70.06V29H65.31V35ZM67.06 32V36.75H73.06V32H67.06ZM70.06 33.75H65.31V39.75H70.06V33.75ZM68.31 36.75V32H62.31V36.75H68.31ZM68.31 8.25V3.5H62.31V8.25H68.31ZM65.31 6.5H70.06V0.5H65.31V6.5ZM67.06 3.5V8.25H73.06V3.5H67.06ZM70.06 5.25H65.31V11.25H70.06V5.25ZM83.93 13H80.93V16H83.93V13ZM83.93 8.25V5.25H80.93V8.25H83.93ZM98.18 8.25V11.25H101.18V8.25H98.18ZM98.18 3.5V0.5H95.18V3.5H98.18ZM102.93 3.5H105.93V0.5H102.93V3.5ZM102.93 8.25H99.93V11.25H102.93V8.25ZM112.43 8.25H115.43V5.25H112.43V8.25ZM112.43 13V16H115.43V13H112.43ZM98.18 13V10H95.18V13H98.18ZM98.18 17.75H95.18V20.75H98.18V17.75ZM107.68 17.75H110.68V14.75H107.68V17.75ZM107.68 22.5V25.5H110.68V22.5H107.68ZM93.43 22.5H90.43V25.5H93.43V22.5ZM93.43 13H96.43V10H93.43V13ZM88.68 27.25H85.68V30.25H88.68V27.25ZM88.68 22.5V19.5H85.68V22.5H88.68ZM93.43 22.5H96.43V19.5H93.43V22.5ZM93.43 27.25V30.25H96.43V27.25H93.43ZM93.43 32V29H90.43V32H93.43ZM107.68 32V35H110.68V32H107.68ZM107.68 22.5V19.5H104.68V22.5H107.68ZM112.43 22.5H115.43V19.5H112.43V22.5ZM112.43 32V35H115.43V32H112.43ZM107.68 32V29H104.68V32H107.68ZM107.68 36.75V39.75H110.68V36.75H107.68ZM93.43 36.75H90.43V39.75H93.43V36.75ZM86.93 13V8.25H80.93V13H86.93ZM83.93 11.25H98.18V5.25H83.93V11.25ZM101.18 8.25V3.5H95.18V8.25H101.18ZM98.18 6.5H102.93V0.5H98.18V6.5ZM99.93 3.5V8.25H105.93V3.5H99.93ZM102.93 11.25H112.43V5.25H102.93V11.25ZM109.43 8.25V13H115.43V8.25H109.43ZM112.43 10H98.18V16H112.43V10ZM95.18 13V17.75H101.18V13H95.18ZM98.18 20.75H107.68V14.75H98.18V20.75ZM104.68 17.75V22.5H110.68V17.75H104.68ZM107.68 19.5H93.43V25.5H107.68V19.5ZM96.43 22.5V13H90.43V22.5H96.43ZM93.43 10H83.93V16H93.43V10ZM91.68 27.25V22.5H85.68V27.25H91.68ZM88.68 25.5H93.43V19.5H88.68V25.5ZM90.43 22.5V27.25H96.43V22.5H90.43ZM93.43 24.25H88.68V30.25H93.43V24.25ZM93.43 35H107.68V29H93.43V35ZM110.68 32V22.5H104.68V32H110.68ZM107.68 25.5H112.43V19.5H107.68V25.5ZM109.43 22.5V32H115.43V22.5H109.43ZM112.43 29H107.68V35H112.43V29ZM104.68 32V36.75H110.68V32H104.68ZM107.68 33.75H93.43V39.75H107.68V33.75ZM96.43 36.75V32H90.43V36.75H96.43ZM126.49 32H123.49V35H126.49V32ZM126.49 27.25V24.25H123.49V27.25H126.49ZM131.24 27.25H134.24V24.25H131.24V27.25ZM131.24 32V35H134.24V32H131.24ZM131.24 32V29H128.24V32H131.24ZM140.74 32H143.74V29H140.74V32ZM140.74 36.75V39.75H143.74V36.75H140.74ZM131.24 36.75H128.24V39.75H131.24V36.75ZM131.24 27.25H128.24V30.25H131.24V27.25ZM131.24 22.5V19.5H128.24V22.5H131.24ZM140.74 22.5V25.5H143.74V22.5H140.74ZM140.74 8.25V5.25H137.74V8.25H140.74ZM145.49 8.25H148.49V5.25H145.49V8.25ZM145.49 17.75H142.49V20.75H145.49V17.75ZM150.24 17.75H153.24V14.75H150.24V17.75ZM150.24 22.5V25.5H153.24V22.5H150.24ZM145.49 22.5V19.5H142.49V22.5H145.49ZM145.49 32V35H148.49V32H145.49ZM140.74 32H137.74V35H140.74V32ZM140.74 27.25H143.74V24.25H140.74V27.25ZM145.49 32V29H142.49V32H145.49ZM150.24 32H153.24V29H150.24V32ZM150.24 36.75V39.75H153.24V36.75H150.24ZM145.49 36.75H142.49V39.75H145.49V36.75ZM129.49 32V27.25H123.49V32H129.49ZM126.49 30.25H131.24V24.25H126.49V30.25ZM128.24 27.25V32H134.24V27.25H128.24ZM131.24 29H126.49V35H131.24V29ZM131.24 35H140.74V29H131.24V35ZM137.74 32V36.75H143.74V32H137.74ZM140.74 33.75H131.24V39.75H140.74V33.75ZM134.24 36.75V32H128.24V36.75H134.24ZM134.24 27.25V22.5H128.24V27.25H134.24ZM131.24 25.5H140.74V19.5H131.24V25.5ZM143.74 22.5V8.25H137.74V22.5H143.74ZM140.74 11.25H145.49V5.25H140.74V11.25ZM142.49 8.25V17.75H148.49V8.25H142.49ZM145.49 20.75H150.24V14.75H145.49V20.75ZM147.24 17.75V22.5H153.24V17.75H147.24ZM150.24 19.5H145.49V25.5H150.24V19.5ZM142.49 22.5V32H148.49V22.5H142.49ZM145.49 29H140.74V35H145.49V29ZM143.74 32V27.25H137.74V32H143.74ZM140.74 24.25H131.24V30.25H140.74V24.25ZM145.49 35H150.24V29H145.49V35ZM147.24 32V36.75H153.24V32H147.24ZM150.24 33.75H145.49V39.75H150.24V33.75ZM148.49 36.75V32H142.49V36.75H148.49ZM164.49 22.5H161.49V25.5H164.49V22.5ZM164.49 17.75V14.75H161.49V17.75H164.49ZM169.24 17.75H172.24V14.75H169.24V17.75ZM169.24 22.5V25.5H172.24V22.5H169.24ZM169.24 32V29H166.24V32H169.24ZM183.49 32H186.49V29H183.49V32ZM183.49 36.75V39.75H186.49V36.75H183.49ZM169.24 36.75H166.24V39.75H169.24V36.75ZM169.24 17.75H166.24V20.75H169.24V17.75ZM169.24 13V10H166.24V13H169.24ZM188.24 13H191.24V10H188.24V13ZM188.24 17.75V20.75H191.24V17.75H188.24ZM169.24 8.25H166.24V11.25H169.24V8.25ZM169.24 3.5V0.5H166.24V3.5H169.24ZM188.24 3.5H191.24V0.5H188.24V3.5ZM188.24 8.25V11.25H191.24V8.25H188.24ZM183.49 32H180.49V35H183.49V32ZM183.49 27.25V24.25H180.49V27.25H183.49ZM188.24 27.25V30.25H191.24V27.25H188.24ZM188.24 17.75V14.75H185.24V17.75H188.24ZM192.99 17.75H195.99V14.75H192.99V17.75ZM192.99 27.25V30.25H195.99V27.25H192.99ZM188.24 27.25V24.25H185.24V27.25H188.24ZM188.24 32V35H191.24V32H188.24ZM167.49 22.5V17.75H161.49V22.5H167.49ZM164.49 20.75H169.24V14.75H164.49V20.75ZM166.24 17.75V22.5H172.24V17.75H166.24ZM169.24 19.5H164.49V25.5H169.24V19.5ZM169.24 35H183.49V29H169.24V35ZM180.49 32V36.75H186.49V32H180.49ZM183.49 33.75H169.24V39.75H183.49V33.75ZM172.24 36.75V32H166.24V36.75H172.24ZM172.24 17.75V13H166.24V17.75H172.24ZM169.24 16H188.24V10H169.24V16ZM185.24 13V17.75H191.24V13H185.24ZM188.24 14.75H169.24V20.75H188.24V14.75ZM172.24 8.25V3.5H166.24V8.25H172.24ZM169.24 6.5H188.24V0.5H169.24V6.5ZM185.24 3.5V8.25H191.24V3.5H185.24ZM188.24 5.25H169.24V11.25H188.24V5.25ZM186.49 32V27.25H180.49V32H186.49ZM183.49 30.25H188.24V24.25H183.49V30.25ZM191.24 27.25V17.75H185.24V27.25H191.24ZM188.24 20.75H192.99V14.75H188.24V20.75ZM189.99 17.75V27.25H195.99V17.75H189.99ZM192.99 24.25H188.24V30.25H192.99V24.25ZM185.24 27.25V32H191.24V27.25H185.24ZM188.24 29H183.49V35H188.24V29Z" fill="#263024"/>
<path d="M3.75 32V27.25H8.5V32H3.75ZM8.5 32H32.25V36.75H8.5V32ZM8.5 27.25V22.5H13.25V17.75H22.75V22.5H13.25V27.25H8.5ZM8.5 17.75V3.5H13.25V17.75H8.5ZM22.75 17.75V13H27.5V17.75H22.75ZM46.31 22.5V17.75H51.06V22.5H46.31ZM51.06 27.25V22.5H60.56V27.25H51.06ZM51.06 17.75V13H60.56V17.75H51.06ZM60.56 32V27.25H65.31V32H60.56ZM60.56 13V8.25H65.31V13H60.56ZM65.31 32H70.06V36.75H65.31V32ZM65.31 8.25V3.5H70.06V8.25H65.31ZM83.93 13V8.25H98.18V3.5H102.93V8.25H112.43V13H98.18V17.75H107.68V22.5H93.43V13H83.93ZM88.68 27.25V22.5H93.43V27.25H88.68ZM93.43 32H107.68V22.5H112.43V32H107.68V36.75H93.43V32ZM126.49 32V27.25H131.24V32H126.49ZM131.24 32H140.74V36.75H131.24V32ZM131.24 27.25V22.5H140.74V8.25H145.49V17.75H150.24V22.5H145.49V32H140.74V27.25H131.24ZM145.49 32H150.24V36.75H145.49V32ZM164.49 22.5V17.75H169.24V22.5H164.49ZM169.24 32H183.49V36.75H169.24V32ZM169.24 17.75V13H188.24V17.75H169.24ZM169.24 8.25V3.5H188.24V8.25H169.24ZM183.49 32V27.25H188.24V17.75H192.99V27.25H188.24V32H183.49Z" fill="white"/>
</svg>
