<svg width="210" height="40" viewBox="0 0 210 40" fill="none" xmlns="http://www.w3.org/2000/svg">
<path d="M3 36.75H0V39.75H3V36.75ZM3 3.5V0.5H0V3.5H3ZM7.75 3.5H10.75V0.5H7.75V3.5ZM7.75 36.75V39.75H10.75V36.75H7.75ZM12.5 32H9.5V35H12.5V32ZM12.5 27.25V24.25H9.5V27.25H12.5ZM17.25 27.25H20.25V24.25H17.25V27.25ZM17.25 32V35H20.25V32H17.25ZM12.5 17.75H9.5V20.75H12.5V17.75ZM12.5 13V10H9.5V13H12.5ZM26.75 13V16H29.75V13H26.75ZM26.75 3.5V0.5H23.75V3.5H26.75ZM31.5 3.5H34.5V0.5H31.5V3.5ZM31.5 13H28.5V16H31.5V13ZM36.25 13H39.25V10H36.25V13ZM36.25 17.75V20.75H39.25V17.75H36.25ZM31.5 17.75V14.75H28.5V17.75H31.5ZM31.5 32V35H34.5V32H31.5ZM26.75 32H23.75V35H26.75V32ZM26.75 27.25H29.75V24.25H26.75V27.25ZM17.25 27.25H14.25V30.25H17.25V27.25ZM17.25 22.5V19.5H14.25V22.5H17.25ZM26.75 22.5V25.5H29.75V22.5H26.75ZM26.75 17.75H29.75V14.75H26.75V17.75ZM17.25 32V29H14.25V32H17.25ZM26.75 32H29.75V29H26.75V32ZM26.75 36.75V39.75H29.75V36.75H26.75ZM17.25 36.75H14.25V39.75H17.25V36.75ZM31.5 32V29H28.5V32H31.5ZM36.25 32H39.25V29H36.25V32ZM36.25 36.75V39.75H39.25V36.75H36.25ZM31.5 36.75H28.5V39.75H31.5V36.75ZM6 36.75V3.5H0V36.75H6ZM3 6.5H7.75V0.5H3V6.5ZM4.75 3.5V36.75H10.75V3.5H4.75ZM7.75 33.75H3V39.75H7.75V33.75ZM15.5 32V27.25H9.5V32H15.5ZM12.5 30.25H17.25V24.25H12.5V30.25ZM14.25 27.25V32H20.25V27.25H14.25ZM17.25 29H12.5V35H17.25V29ZM15.5 17.75V13H9.5V17.75H15.5ZM12.5 16H26.75V10H12.5V16ZM29.75 13V3.5H23.75V13H29.75ZM26.75 6.5H31.5V0.5H26.75V6.5ZM28.5 3.5V13H34.5V3.5H28.5ZM31.5 16H36.25V10H31.5V16ZM33.25 13V17.75H39.25V13H33.25ZM36.25 14.75H31.5V20.75H36.25V14.75ZM28.5 17.75V32H34.5V17.75H28.5ZM31.5 29H26.75V35H31.5V29ZM29.75 32V27.25H23.75V32H29.75ZM26.75 24.25H17.25V30.25H26.75V24.25ZM20.25 27.25V22.5H14.25V27.25H20.25ZM17.25 25.5H26.75V19.5H17.25V25.5ZM29.75 22.5V17.75H23.75V22.5H29.75ZM26.75 14.75H12.5V20.75H26.75V14.75ZM17.25 35H26.75V29H17.25V35ZM23.75 32V36.75H29.75V32H23.75ZM26.75 33.75H17.25V39.75H26.75V33.75ZM20.25 36.75V32H14.25V36.75H20.25ZM31.5 35H36.25V29H31.5V35ZM33.25 32V36.75H39.25V32H33.25ZM36.25 33.75H31.5V39.75H36.25V33.75ZM34.5 36.75V32H28.5V36.75H34.5ZM50.12 32H47.12V35H50.12V32ZM50.12 3.5V0.5H47.12V3.5H50.12ZM54.87 3.5H57.87V0.5H54.87V3.5ZM54.87 32V35H57.87V32H54.87ZM54.87 32V29H51.87V32H54.87ZM69.12 32H72.12V29H69.12V32ZM69.12 36.75V39.75H72.12V36.75H69.12ZM54.87 36.75H51.87V39.75H54.87V36.75ZM59.62 8.25H56.62V11.25H59.62V8.25ZM59.62 3.5V0.5H56.62V3.5H59.62ZM64.37 3.5H67.37V0.5H64.37V3.5ZM64.37 8.25V11.25H67.37V8.25H64.37ZM69.12 32H66.12V35H69.12V32ZM69.12 27.25V24.25H66.12V27.25H69.12ZM73.87 27.25H76.87V24.25H73.87V27.25ZM73.87 32V35H76.87V32H73.87ZM69.12 8.25H66.12V11.25H69.12V8.25ZM69.12 3.5V0.5H66.12V3.5H69.12ZM73.87 3.5H76.87V0.5H73.87V3.5ZM73.87 8.25V11.25H76.87V8.25H73.87ZM53.12 32V3.5H47.12V32H53.12ZM50.12 6.5H54.87V0.5H50.12V6.5ZM51.87 3.5V32H57.87V3.5H51.87ZM54.87 29H50.12V35H54.87V29ZM54.87 35H69.12V29H54.87V35ZM66.12 32V36.75H72.12V32H66.12ZM69.12 33.75H54.87V39.75H69.12V33.75ZM57.87 36.75V32H51.87V36.75H57.87ZM62.62 8.25V3.5H56.62V8.25H62.62ZM59.62 6.5H64.37V0.5H59.62V6.5ZM61.37 3.5V8.25H67.37V3.5H61.37ZM64.37 5.25H59.62V11.25H64.37V5.25ZM72.12 32V27.25H66.12V32H72.12ZM69.12 30.25H73.87V24.25H69.12V30.25ZM70.87 27.25V32H76.87V27.25H70.87ZM73.87 29H69.12V35H73.87V29ZM72.12 8.25V3.5H66.12V8.25H72.12ZM69.12 6.5H73.87V0.5H69.12V6.5ZM70.87 3.5V8.25H76.87V3.5H70.87ZM73.87 5.25H69.12V11.25H73.87V5.25ZM87.74 32H84.74V35H87.74V32ZM87.74 22.5V19.5H84.74V22.5H87.74ZM92.49 22.5H95.49V19.5H92.49V22.5ZM92.49 32V35H95.49V32H92.49ZM92.49 32V29H89.49V32H92.49ZM97.24 32H100.24V29H97.24V32ZM97.24 36.75V39.75H100.24V36.75H97.24ZM92.49 36.75H89.49V39.75H92.49V36.75ZM92.49 22.5H89.49V25.5H92.49V22.5ZM92.49 8.25V5.25H89.49V8.25H92.49ZM97.24 8.25H100.24V5.25H97.24V8.25ZM97.24 17.75H94.24V20.75H97.24V17.75ZM101.99 17.75H104.99V14.75H101.99V17.75ZM101.99 22.5H98.99V25.5H101.99V22.5ZM106.74 22.5H109.74V19.5H106.74V22.5ZM106.74 27.25V30.25H109.74V27.25H106.74ZM101.99 27.25V24.25H98.99V27.25H101.99ZM101.99 32V35H104.99V32H101.99ZM97.24 32H94.24V35H97.24V32ZM97.24 22.5H100.24V19.5H97.24V22.5ZM101.99 32V29H98.99V32H101.99ZM106.74 32H109.74V29H106.74V32ZM106.74 36.75V39.75H109.74V36.75H106.74ZM101.99 36.75H98.99V39.75H101.99V36.75ZM101.99 17.75H98.99V20.75H101.99V17.75ZM101.99 13V10H98.99V13H101.99ZM106.74 13V16H109.74V13H106.74ZM106.74 3.5V0.5H103.74V3.5H106.74ZM111.49 3.5H114.49V0.5H111.49V3.5ZM111.49 13H108.49V16H111.49V13ZM116.24 13H119.24V10H116.24V13ZM116.24 17.75V20.75H119.24V17.75H116.24ZM111.49 17.75V14.75H108.49V17.75H111.49ZM111.49 22.5V25.5H114.49V22.5H111.49ZM106.74 22.5H103.74V25.5H106.74V22.5ZM106.74 17.75H109.74V14.75H106.74V17.75ZM111.49 32V29H108.49V32H111.49ZM116.24 32V35H119.24V32H116.24ZM116.24 17.75V14.75H113.24V17.75H116.24ZM120.99 17.75H123.99V14.75H120.99V17.75ZM120.99 32V35H123.99V32H120.99ZM116.24 32V29H113.24V32H116.24ZM116.24 36.75V39.75H119.24V36.75H116.24ZM111.49 36.75H108.49V39.75H111.49V36.75ZM90.74 32V22.5H84.74V32H90.74ZM87.74 25.5H92.49V19.5H87.74V25.5ZM89.49 22.5V32H95.49V22.5H89.49ZM92.49 29H87.74V35H92.49V29ZM92.49 35H97.24V29H92.49V35ZM94.24 32V36.75H100.24V32H94.24ZM97.24 33.75H92.49V39.75H97.24V33.75ZM95.49 36.75V32H89.49V36.75H95.49ZM95.49 22.5V8.25H89.49V22.5H95.49ZM92.49 11.25H97.24V5.25H92.49V11.25ZM94.24 8.25V17.75H100.24V8.25H94.24ZM97.24 20.75H101.99V14.75H97.24V20.75ZM98.99 17.75V22.5H104.99V17.75H98.99ZM101.99 25.5H106.74V19.5H101.99V25.5ZM103.74 22.5V27.25H109.74V22.5H103.74ZM106.74 24.25H101.99V30.25H106.74V24.25ZM98.99 27.25V32H104.99V27.25H98.99ZM101.99 29H97.24V35H101.99V29ZM100.24 32V22.5H94.24V32H100.24ZM97.24 19.5H92.49V25.5H97.24V19.5ZM101.99 35H106.74V29H101.99V35ZM103.74 32V36.75H109.74V32H103.74ZM106.74 33.75H101.99V39.75H106.74V33.75ZM104.99 36.75V32H98.99V36.75H104.99ZM104.99 17.75V13H98.99V17.75H104.99ZM101.99 16H106.74V10H101.99V16ZM109.74 13V3.5H103.74V13H109.74ZM106.74 6.5H111.49V0.5H106.74V6.5ZM108.49 3.5V13H114.49V3.5H108.49ZM111.49 16H116.24V10H111.49V16ZM113.24 13V17.75H119.24V13H113.24ZM116.24 14.75H111.49V20.75H116.24V14.75ZM108.49 17.75V22.5H114.49V17.75H108.49ZM111.49 19.5H106.74V25.5H111.49V19.5ZM109.74 22.5V17.75H103.74V22.5H109.74ZM106.74 14.75H101.99V20.75H106.74V14.75ZM111.49 35H116.24V29H111.49V35ZM119.24 32V17.75H113.24V32H119.24ZM116.24 20.75H120.99V14.75H116.24V20.75ZM117.99 17.75V32H123.99V17.75H117.99ZM120.99 29H116.24V35H120.99V29ZM113.24 32V36.75H119.24V32H113.24ZM116.24 33.75H111.49V39.75H116.24V33.75ZM114.49 36.75V32H108.49V36.75H114.49ZM135.05 32H132.05V35H135.05V32ZM135.05 27.25V24.25H132.05V27.25H135.05ZM139.8 27.25H142.8V24.25H139.8V27.25ZM139.8 32V35H142.8V32H139.8ZM139.8 32V29H136.8V32H139.8ZM149.3 32H152.3V29H149.3V32ZM149.3 36.75V39.75H152.3V36.75H149.3ZM139.8 36.75H136.8V39.75H139.8V36.75ZM139.8 27.25H136.8V30.25H139.8V27.25ZM139.8 22.5V19.5H136.8V22.5H139.8ZM149.3 22.5V25.5H152.3V22.5H149.3ZM149.3 3.5V0.5H146.3V3.5H149.3ZM154.05 3.5H157.05V0.5H154.05V3.5ZM154.05 13H151.05V16H154.05V13ZM163.55 13H166.55V10H163.55V13ZM163.55 17.75V20.75H166.55V17.75H163.55ZM154.05 17.75V14.75H151.05V17.75H154.05ZM154.05 27.25H151.05V30.25H154.05V27.25ZM158.8 27.25H161.8V24.25H158.8V27.25ZM158.8 32V35H161.8V32H158.8ZM149.3 32H146.3V35H149.3V32ZM149.3 27.25H152.3V24.25H149.3V27.25ZM158.8 32V29H155.8V32H158.8ZM163.55 32H166.55V29H163.55V32ZM163.55 36.75V39.75H166.55V36.75H163.55ZM158.8 36.75H155.8V39.75H158.8V36.75ZM138.05 32V27.25H132.05V32H138.05ZM135.05 30.25H139.8V24.25H135.05V30.25ZM136.8 27.25V32H142.8V27.25H136.8ZM139.8 29H135.05V35H139.8V29ZM139.8 35H149.3V29H139.8V35ZM146.3 32V36.75H152.3V32H146.3ZM149.3 33.75H139.8V39.75H149.3V33.75ZM142.8 36.75V32H136.8V36.75H142.8ZM142.8 27.25V22.5H136.8V27.25H142.8ZM139.8 25.5H149.3V19.5H139.8V25.5ZM152.3 22.5V3.5H146.3V22.5H152.3ZM149.3 6.5H154.05V0.5H149.3V6.5ZM151.05 3.5V13H157.05V3.5H151.05ZM154.05 16H163.55V10H154.05V16ZM160.55 13V17.75H166.55V13H160.55ZM163.55 14.75H154.05V20.75H163.55V14.75ZM151.05 17.75V27.25H157.05V17.75H151.05ZM154.05 30.25H158.8V24.25H154.05V30.25ZM155.8 27.25V32H161.8V27.25H155.8ZM158.8 29H149.3V35H158.8V29ZM152.3 32V27.25H146.3V32H152.3ZM149.3 24.25H139.8V30.25H149.3V24.25ZM158.8 35H163.55V29H158.8V35ZM160.55 32V36.75H166.55V32H160.55ZM163.55 33.75H158.8V39.75H163.55V33.75ZM161.8 36.75V32H155.8V36.75H161.8ZM177.61 22.5H174.61V25.5H177.61V22.5ZM177.61 17.75V14.75H174.61V17.75H177.61ZM182.36 17.75H185.36V14.75H182.36V17.75ZM182.36 22.5V25.5H185.36V22.5H182.36ZM182.36 32V29H179.36V32H182.36ZM196.61 32H199.61V29H196.61V32ZM196.61 36.75V39.75H199.61V36.75H196.61ZM182.36 36.75H179.36V39.75H182.36V36.75ZM182.36 17.75H179.36V20.75H182.36V17.75ZM182.36 13V10H179.36V13H182.36ZM201.36 13H204.36V10H201.36V13ZM201.36 17.75V20.75H204.36V17.75H201.36ZM182.36 8.25H179.36V11.25H182.36V8.25ZM182.36 3.5V0.5H179.36V3.5H182.36ZM201.36 3.5H204.36V0.5H201.36V3.5ZM201.36 8.25V11.25H204.36V8.25H201.36ZM196.61 32H193.61V35H196.61V32ZM196.61 27.25V24.25H193.61V27.25H196.61ZM201.36 27.25V30.25H204.36V27.25H201.36ZM201.36 17.75V14.75H198.36V17.75H201.36ZM206.11 17.75H209.11V14.75H206.11V17.75ZM206.11 27.25V30.25H209.11V27.25H206.11ZM201.36 27.25V24.25H198.36V27.25H201.36ZM201.36 32V35H204.36V32H201.36ZM180.61 22.5V17.75H174.61V22.5H180.61ZM177.61 20.75H182.36V14.75H177.61V20.75ZM179.36 17.75V22.5H185.36V17.75H179.36ZM182.36 19.5H177.61V25.5H182.36V19.5ZM182.36 35H196.61V29H182.36V35ZM193.61 32V36.75H199.61V32H193.61ZM196.61 33.75H182.36V39.75H196.61V33.75ZM185.36 36.75V32H179.36V36.75H185.36ZM185.36 17.75V13H179.36V17.75H185.36ZM182.36 16H201.36V10H182.36V16ZM198.36 13V17.75H204.36V13H198.36ZM201.36 14.75H182.36V20.75H201.36V14.75ZM185.36 8.25V3.5H179.36V8.25H185.36ZM182.36 6.5H201.36V0.5H182.36V6.5ZM198.36 3.5V8.25H204.36V3.5H198.36ZM201.36 5.25H182.36V11.25H201.36V5.25ZM199.61 32V27.25H193.61V32H199.61ZM196.61 30.25H201.36V24.25H196.61V30.25ZM204.36 27.25V17.75H198.36V27.25H204.36ZM201.36 20.75H206.11V14.75H201.36V20.75ZM203.11 17.75V27.25H209.11V17.75H203.11ZM206.11 24.25H201.36V30.25H206.11V24.25ZM198.36 27.25V32H204.36V27.25H198.36ZM201.36 29H196.61V35H201.36V29Z" fill="#263024"/>
<path d="M3 36.75V3.5H7.75V36.75H3ZM12.5 32V27.25H17.25V32H12.5ZM12.5 17.75V13H26.75V3.5H31.5V13H36.25V17.75H31.5V32H26.75V27.25H17.25V22.5H26.75V17.75H12.5ZM17.25 32H26.75V36.75H17.25V32ZM31.5 32H36.25V36.75H31.5V32ZM50.12 32V3.5H54.87V32H50.12ZM54.87 32H69.12V36.75H54.87V32ZM59.62 8.25V3.5H64.37V8.25H59.62ZM69.12 32V27.25H73.87V32H69.12ZM69.12 8.25V3.5H73.87V8.25H69.12ZM87.74 32V22.5H92.49V32H87.74ZM92.49 32H97.24V36.75H92.49V32ZM92.49 22.5V8.25H97.24V17.75H101.99V22.5H106.74V27.25H101.99V32H97.24V22.5H92.49ZM101.99 32H106.74V36.75H101.99V32ZM101.99 17.75V13H106.74V3.5H111.49V13H116.24V17.75H111.49V22.5H106.74V17.75H101.99ZM111.49 32H116.24V17.75H120.99V32H116.24V36.75H111.49V32ZM135.05 32V27.25H139.8V32H135.05ZM139.8 32H149.3V36.75H139.8V32ZM139.8 27.25V22.5H149.3V3.5H154.05V13H163.55V17.75H154.05V27.25H158.8V32H149.3V27.25H139.8ZM158.8 32H163.55V36.75H158.8V32ZM177.61 22.5V17.75H182.36V22.5H177.61ZM182.36 32H196.61V36.75H182.36V32ZM182.36 17.75V13H201.36V17.75H182.36ZM182.36 8.25V3.5H201.36V8.25H182.36ZM196.61 32V27.25H201.36V17.75H206.11V27.25H201.36V32H196.61Z" fill="white"/>
</svg>
