<svg width="32" height="30" viewBox="0 0 32 30" fill="none" xmlns="http://www.w3.org/2000/svg">
<path d="M16.1381 0C7.72461 0 0.903198 6.82141 0.903198 15.2349C0.903198 22.3737 5.81898 28.347 12.4462 30C12.3751 29.7943 12.3294 29.5557 12.3294 29.2598V26.6559C11.7111 26.6559 10.6751 26.6559 10.4148 26.6559C9.37252 26.6559 8.44573 26.2078 7.9963 25.3749C7.49736 24.4494 7.41103 23.0339 6.17446 22.168C5.80756 21.8798 6.08686 21.551 6.50963 21.5954C7.29042 21.8163 7.9379 22.3521 8.54729 23.1468C9.15415 23.9429 9.4398 24.1231 10.5735 24.1231C11.1233 24.1231 11.9459 24.0914 12.7204 23.9695C13.1368 22.912 13.8566 21.9382 14.7365 21.4786C9.66325 20.9568 7.24217 18.4329 7.24217 15.0063C7.24217 13.5311 7.87061 12.1041 8.93832 10.9018C8.58792 9.70842 8.14738 7.27465 9.0729 6.34786C11.3556 6.34786 12.7356 7.82818 13.067 8.2281C14.2045 7.83834 15.4538 7.61744 16.7665 7.61744C18.0818 7.61744 19.3361 7.83834 20.4762 8.23064C20.8037 7.83326 22.185 6.34786 24.4728 6.34786C25.4021 7.27592 24.9565 9.71985 24.6023 10.9107C25.6637 12.1105 26.2883 13.5336 26.2883 15.0063C26.2883 18.4304 23.871 20.953 18.8054 21.4774C20.1994 22.2048 21.2164 24.2488 21.2164 25.7888V29.2598C21.2164 29.3919 21.1872 29.4871 21.1719 29.6001C27.1084 27.5193 31.3729 21.8824 31.3729 15.2349C31.3729 6.82141 24.5515 0 16.1381 0Z" fill="#CCCCCC"/>
</svg>
