<svg width="30" height="30" viewBox="0 0 30 30" fill="none" xmlns="http://www.w3.org/2000/svg">
<path d="M21.425 0H8.88313C4.20073 0 0.404907 3.79582 0.404907 8.47822V21.5218C0.404907 26.2042 4.20073 30 8.88313 30H21.4249C26.1074 30 29.9032 26.2042 29.9032 21.5218V8.47822C29.9032 3.79582 26.1074 0 21.425 0ZM3.41493 8.47822C3.41493 5.46293 5.86784 3.01002 8.88313 3.01002H21.4249C24.4402 3.01002 26.8931 5.46293 26.8931 8.47822V21.5218C26.8931 24.5371 24.4402 26.99 21.4249 26.99H8.88313C5.86784 26.99 3.41493 24.5371 3.41493 21.5218V8.47822Z" fill="#CCCCCC"/>
<path d="M15.154 22.7255C19.4139 22.7255 22.8797 19.2597 22.8797 14.9998C22.8797 10.7399 19.4139 7.27393 15.154 7.27393C10.8941 7.27393 7.42834 10.7399 7.42834 14.9998C7.42834 19.2597 10.894 22.7255 15.154 22.7255ZM15.154 9.68195C18.0862 9.68195 20.4716 12.0675 20.4716 14.9998C20.4716 17.9321 18.0862 20.3177 15.154 20.3177C12.2218 20.3177 9.83637 17.9321 9.83637 14.9998C9.83637 12.0675 12.2218 9.68195 15.154 9.68195Z" fill="#CCCCCC"/>
<path d="M23.1057 8.77946C24.0616 8.77946 24.8365 8.0045 24.8365 7.04855C24.8365 6.09259 24.0616 5.31763 23.1057 5.31763C22.1498 5.31763 21.3749 6.09259 21.3749 7.04855C21.3749 8.0045 22.1498 8.77946 23.1057 8.77946Z" fill="#CCCCCC"/>
</svg>
