<svg width="358" height="264" viewBox="0 0 358 264" fill="none" xmlns="http://www.w3.org/2000/svg" preserveAspectRatio="none">
<path d="M341 6H17C10.9249 6 6 10.9249 6 17V247C6 253.075 10.9249 258 17 258H341C347.075 258 352 253.075 352 247V17C352 10.9249 347.075 6 341 6Z" fill="black" fill-opacity="0.5"/>
<path d="M341 6.5H17C11.201 6.5 6.5 11.201 6.5 17V247C6.5 252.799 11.201 257.5 17 257.5H341C346.799 257.5 351.5 252.799 351.5 247V17C351.5 11.201 346.799 6.5 341 6.5Z" stroke="black" stroke-opacity="0.5"/>
<path d="M341 0.5H17C7.8873 0.5 0.5 7.8873 0.5 17V247C0.5 256.113 7.8873 263.5 17 263.5H341C350.113 263.5 357.5 256.113 357.5 247V17C357.5 7.8873 350.113 0.5 341 0.5Z" stroke="#333333" stroke-opacity="0.5"/>
<path d="M341 3.5H17C9.54416 3.5 3.5 9.54416 3.5 17V247C3.5 254.456 9.54416 260.5 17 260.5H341C348.456 260.5 354.5 254.456 354.5 247V17C354.5 9.54416 348.456 3.5 341 3.5Z" stroke="white" stroke-width="5"/>
</svg>
