<svg width="306" height="60" viewBox="0 0 306 60" fill="none" xmlns="http://www.w3.org/2000/svg" preserveAspectRatio="none">
<path d="M306 0H0V60H306V0Z" fill="white" fill-opacity="0.4"/>
<path d="M9.00195 29.7488L11.7518 26.999L12.3052 27.5524L12.8552 27.0024L14.5153 28.6626L15.0653 28.1126L15.6187 28.666L16.1687 28.116L16.7221 28.6694L17.272 28.1194L17.8254 28.6728L18.3754 28.1228L18.9288 28.6762L19.4788 28.1262L20.0321 28.6796L20.5821 28.1297L21.1355 28.6831L21.6855 28.1331L22.2389 28.6865L22.7888 28.1365L23.3422 28.6899L23.8922 28.1399L24.4456 28.6933L25.5455 27.5934L24.9921 27.04L25.5421 26.49L24.9887 25.9366L25.5387 25.3866L24.9853 24.8333L25.5353 24.2833L24.9819 23.7299L26.0818 22.6299L26.6352 23.1833L27.1852 22.6334L27.7386 23.1867L28.2886 22.6368L28.8419 23.1902L29.3919 22.6402L30.4987 23.747L29.9487 24.2969L29.3953 23.7436L28.8454 24.2935L28.292 23.7401L27.742 24.2901L28.2954 24.8435L27.7454 25.3935L28.2988 25.9469L27.7488 26.4968L28.3022 27.0502L27.7522 27.6002L28.3056 28.1536L28.8556 27.6036L29.409 28.157L29.959 27.607L30.5124 28.1604L31.0623 27.6104L31.6157 28.1638L32.1657 27.6139L32.7191 28.1672L33.269 27.6173L33.8224 28.1707L34.3724 27.6207L34.9258 28.1741L35.4758 27.6241L36.0292 28.1775L36.5791 27.6275L37.1325 28.1809L37.6825 27.6309L38.2359 28.1843L38.7858 27.6343L39.3392 28.1877L39.8891 27.6378L40.4426 28.1912L40.9925 27.6412L41.546 28.1946L42.0959 27.6446L42.6493 28.198L43.1993 27.648L43.7527 28.2014L44.3026 27.6514L44.856 28.2048L45.4059 27.6548L45.9594 28.2082L46.5093 27.6583L47.0628 28.2116L47.6127 27.6617L48.166 28.2151L48.7161 27.6651L49.2695 28.2185L49.8194 27.6685L50.3728 28.2219L50.9227 27.6719L51.4762 28.2253L52.0261 27.6753L52.5796 28.2287L53.1295 27.6788L53.6828 28.2321L54.2329 27.6822L54.7863 28.2356L55.3362 27.6856L55.8896 28.239L56.4396 27.689L59.2065 30.4559L56.4567 33.2058L55.9033 32.6524L55.3533 33.2024L54.7999 32.649L54.25 33.199L53.6966 32.6456L53.1465 33.1956L52.5932 32.6422L52.0432 33.1921L51.4898 32.6388L50.9399 33.1887L50.3865 32.6353L49.8365 33.1853L49.2831 32.6319L48.7332 33.1819L48.1798 32.6285L47.6297 33.1785L47.0764 32.6251L46.5264 33.1751L45.973 32.6217L45.4231 33.1716L44.8697 32.6183L44.3197 33.1682L43.7663 32.6148L43.2164 33.1648L42.663 32.6114L42.1129 33.1614L41.5596 32.608L41.0096 33.158L40.4562 32.6046L39.9063 33.1546L39.3529 32.6012L38.8029 33.1511L38.2495 32.5978L37.6996 33.1477L37.1462 32.5943L36.5962 33.1443L36.0428 32.5909L35.4928 33.1409L34.9395 32.5875L34.3895 33.1375L33.8361 32.5841L33.2861 33.1341L32.7327 32.5807L32.1828 33.1307L31.6294 32.5773L31.0794 33.1272L30.526 32.5738L29.976 33.1238L29.4227 32.5704L28.8727 33.1204L28.3193 32.567L27.7693 33.117L28.3227 33.6704L27.7727 34.2203L28.3261 34.7737L27.7762 35.3237L28.3295 35.8771L27.7796 36.4271L28.333 36.9805L28.8829 36.4305L29.4363 36.9839L29.9863 36.4339L30.5397 36.9873L29.4397 38.0872L28.8864 37.5338L28.3364 38.0838L27.783 37.5304L27.233 38.0804L26.6796 37.527L26.1297 38.077L25.0229 36.9702L25.5729 36.4202L25.0195 35.8668L25.5694 35.3169L25.0161 34.7635L25.566 34.2135L25.0126 33.6601L25.5626 33.1102L23.9024 31.45L23.3525 32L22.7991 31.4466L22.2491 31.9965L21.6957 31.4432L21.1458 31.9931L20.5924 31.4397L20.0424 31.9897L19.489 31.4363L18.939 31.9863L18.3856 31.4329L17.8357 31.9829L17.2823 31.4295L16.7323 31.9795L16.1789 31.4261L15.629 31.9761L15.0756 31.4227L14.5256 31.9726L13.9722 31.4192L12.8723 32.5192L12.3189 31.9658L11.7689 32.5158L9.00195 29.7488Z" fill="url(#paint0_linear_6554_110747)" stroke="black" stroke-opacity="0.5"/>
<defs>
<linearGradient id="paint0_linear_6554_110747" x1="9.00065" y1="30.1026" x2="59.0007" y2="30.1026" gradientUnits="userSpaceOnUse">
<stop stop-color="#8A5500"/>
<stop offset="1" stop-color="#FEA210"/>
</linearGradient>
</defs>
</svg>
